<?xml version="1.0" encoding="utf-8"?>
<!-- Generator: Adobe Illustrator 27.5.0, SVG Export Plug-In . SVG Version: 6.00 Build 0)  -->
<svg version="1.1" id="Capa_1" xmlns="http://www.w3.org/2000/svg" xmlns:xlink="http://www.w3.org/1999/xlink" x="0px" y="0px"
	 viewBox="0 0 2122 2122" style="enable-background:new 0 0 2122 2122;" xml:space="preserve">
<rect style="fill:#222323;" width="2121.32" height="2121.32"/>
<g>
	<g>
		<polygon style="fill:#FFFFFF;" points="720.032,834.732 728.698,844.737 741.856,843.278 735.01,854.604 740.464,866.668 
			727.574,863.664 717.785,872.577 716.672,859.388 705.165,852.839 717.363,847.692 		"/>
		<polygon style="fill:#FFFFFF;" points="1617.61,1093.539 1618.739,1101.265 1625.743,1104.711 1618.739,1108.173 
			1617.621,1115.898 1612.167,1110.312 1604.477,1111.634 1608.106,1104.722 1604.467,1097.814 1612.167,1099.13 		"/>
		<polygon style="fill:#FFFFFF;" points="946.992,741.694 948.12,749.417 955.124,752.871 948.13,756.327 947.007,764.058 
			941.548,758.464 933.853,759.79 937.487,752.878 933.853,745.971 941.543,747.282 		"/>
		<polygon style="fill:#FFFFFF;" points="1062.414,781.064 1063.542,788.787 1070.546,792.243 1063.547,795.7 1062.423,803.427 
			1056.975,797.837 1049.28,799.161 1052.904,792.246 1049.27,785.344 1056.965,786.655 		"/>
		<polygon style="fill:#FFFFFF;" points="784.22,1381.852 785.344,1389.573 792.347,1393.024 785.349,1396.48 784.226,1404.211 
			778.777,1398.62 771.082,1399.946 774.716,1393.034 771.077,1386.132 778.772,1387.443 		"/>
		<polygon style="fill:#FFFFFF;" points="1523.815,737.73 1525.732,750.822 1537.6,756.677 1525.737,762.538 1523.836,775.641 
			1514.595,766.167 1501.548,768.408 1507.703,756.693 1501.543,744.977 1514.585,747.209 		"/>
		<polygon style="fill:#FFFFFF;" points="821.024,1470.941 822.93,1484.033 834.808,1489.888 822.945,1495.749 821.044,1508.852 
			811.799,1499.378 798.757,1501.62 804.912,1489.904 798.741,1478.194 811.793,1480.425 		"/>
		<polygon style="fill:#FFFFFF;" points="452.751,1078.027 454.667,1091.125 466.54,1096.981 454.677,1102.84 452.776,1115.944 
			443.542,1106.47 430.494,1108.711 436.649,1096.99 430.479,1085.28 443.526,1087.511 		"/>
		<polygon style="fill:#FFFFFF;" points="1046.642,1704.233 1048.553,1717.327 1060.421,1723.182 1048.558,1729.047 
			1046.667,1742.145 1037.417,1732.676 1024.375,1734.913 1030.525,1723.197 1024.355,1711.487 1037.407,1713.713 		"/>
		<polygon style="fill:#FFFFFF;" points="570.038,1781.418 571.954,1794.511 583.817,1800.366 571.954,1806.227 570.058,1819.33 
			560.808,1809.856 547.771,1812.098 553.921,1800.377 547.756,1788.672 560.803,1790.898 		"/>
		<polygon style="fill:#FFFFFF;" points="1618.606,1542.082 1620.523,1555.175 1632.39,1561.03 1620.527,1566.891 
			1618.627,1579.993 1609.386,1570.519 1596.34,1572.766 1602.495,1561.046 1596.324,1549.335 1609.377,1551.562 		"/>
		<polygon style="fill:#FFFFFF;" points="1451.489,1808.921 1453.4,1822.019 1465.274,1827.869 1453.411,1833.734 
			1451.515,1846.832 1442.265,1837.363 1429.222,1839.605 1435.382,1827.884 1429.217,1816.174 1442.259,1818.4 		"/>
		<polygon style="fill:#FFFFFF;" points="1586.464,1233.22 1588.375,1246.313 1600.248,1252.168 1588.38,1258.029 
			1586.489,1271.132 1577.239,1261.653 1564.202,1263.9 1570.347,1252.179 1564.187,1240.468 1577.234,1242.694 		"/>
		<g>
			<g>
				<path style="fill:#FFFFFF;" d="M816.104,998.196c-0.796,0.313-1.591,0.626-2.386,0.941c-0.735,0.292-1.476,0.661-2.237,0.877
					c0.411-0.055,0.822-0.11,1.233-0.166c-0.786,0.089-1.696,0.094-2.432,0.323c-0.402,0.125-0.796,0.306-1.186,0.465
					c-0.96,0.391-1.925,0.779-2.854,1.238c0.912-0.247,1.825-0.494,2.737-0.74c-2.167-0.044-4.209,1.1-5.308,2.966
					c-1.576,2.675-0.685,6.245,2.008,7.816c2.104,1.228,4.421,0.743,6.573,0.006c2.404-0.823,3.923-2.76,4.04-5.307
					c0.001-0.017,0.002-0.033,0.002-0.05c-0.881,1.536-1.763,3.073-2.644,4.609c0.58-0.392,1.159-0.787,1.723-1.202
					c0.849-0.625,1.5-1.248,1.921-2.245c0.394-0.933,0.557-2.066,0.237-3.057c-0.641-1.979-2.394-3.437-4.526-3.446
					c-0.683-0.003-1.365,0.009-2.048,0.002c1.536,0.881,3.073,1.763,4.609,2.644c-0.008-0.011-0.017-0.023-0.025-0.034
					c-0.734-0.995-1.462-1.758-2.632-2.252c-1.156-0.488-2.345-0.58-3.583-0.277c-0.57,0.139-1.141,0.279-1.722,0.364
					c0.494-0.066,0.989-0.133,1.483-0.199c-0.155,0.021-0.312,0.04-0.469,0.028c0.496,0.067,0.993,0.133,1.489,0.2
					c-0.032-0.004-0.059-0.01-0.089-0.02c0.446,0.188,0.893,0.377,1.339,0.565c-0.006-0.003-0.013-0.007-0.02-0.01
					c0.378,0.292,0.756,0.584,1.135,0.877c-0.005-0.004-0.01-0.008-0.015-0.012c0.292,0.378,0.584,0.756,0.877,1.135
					c-0.003-0.005-0.006-0.009-0.01-0.014c0.188,0.446,0.377,0.893,0.565,1.339c-0.002-0.005-0.003-0.01-0.005-0.015
					c0.067,0.497,0.134,0.994,0.2,1.491c0-0.006,0-0.011,0-0.017c-0.067,0.497-0.134,0.994-0.2,1.491
					c0.001-0.006,0.003-0.012,0.004-0.019c-0.188,0.447-0.377,0.893-0.565,1.34c0.011-0.025,0.024-0.044,0.041-0.066
					c-0.293,0.379-0.585,0.757-0.878,1.136c0.047-0.053,0.1-0.097,0.156-0.14c-0.379,0.293-0.759,0.586-1.138,0.879
					c1.054-0.782,1.853-1.555,2.365-2.768c0.154-0.364,0.224-0.565,0.339-0.874c-0.465,0.798-0.93,1.595-1.395,2.393
					c0.155-0.135,0.316-0.262,0.479-0.387c-0.361,0.279-0.722,0.557-1.082,0.836c0.464-0.355,0.939-0.694,1.417-1.029
					c0.594-0.415,1.249-0.811,1.739-1.338c0.25-0.269,0.468-0.58,0.756-0.809c-0.311,0.24-0.621,0.48-0.932,0.72
					c1.369-0.866,2.747-1.717,4.125-2.57c1.773-1.097,2.519-3.278,1.705-5.205C820.285,998.866,818.042,997.433,816.104,998.196
					L816.104,998.196z"/>
			</g>
		</g>
		<g>
			<g>
				<path style="fill:#FFFFFF;" d="M704.645,1183.175c-0.243,0.223-0.49,0.437-0.748,0.643c1.39,0,2.78,0,4.17,0
					c-0.031-0.025-0.061-0.049-0.091-0.073c-0.656-0.526-1.26-0.899-2.117-1.014c-0.882-0.119-1.535,0.08-2.351,0.438
					c0.652-0.255,0.81-0.327,0.473-0.217c-0.378,0.088-0.161,0.062,0.652-0.076c-0.38-0.008-0.139,0.026,0.721,0.103
					c0.535,0.149,0.998,0.421,1.39,0.814c-0.244-0.26-0.099-0.072,0.436,0.566c-0.168-0.326-0.079-0.11,0.269,0.648
					c-0.01-0.151-0.082-0.323-0.106-0.476c0.047,0.353,0.095,0.705,0.142,1.058c-0.072-0.573-0.058-1.14-0.219-1.706
					c-0.138-0.345-0.283-0.688-0.433-1.029c0.093,0.221,0.186,0.441,0.28,0.662c-0.399-0.942-0.839-1.833-1.799-2.34
					c-0.312-0.131-0.624-0.263-0.935-0.395c-0.527-0.208-0.102,0.034,1.275,0.725c-0.083-0.075-0.175-0.14-0.262-0.211
					c-0.306-0.25-0.612-0.562-0.947-0.762c-0.656-0.392-1.327-0.446-2.021-0.153c-0.433,0.182-0.775,0.475-1.123,0.785
					c-0.151,0.135-0.826,0.705-0.169,0.198c0.814-0.627-0.467,0.336-0.563,0.425c-0.534,0.49-0.844,1.196-1.035,1.877
					c-0.234,0.83-0.239,1.757,0.001,2.583c0.286,0.987,0.744,2.002,1.477,2.746c1.644,1.67,4.31,1.971,6.219,0.542
					c0.664-0.497,1.177-0.976,1.509-1.763c0.295-0.699,0.473-1.666,0.186-2.401c-0.033-0.084-0.066-0.168-0.099-0.253
					c-0.253,0.956-0.506,1.913-0.758,2.869c0.242-0.223,0.472-0.454,0.698-0.692c1.048-1.108,1.181-3.036,0-4.12
					C707.56,1182.069,705.847,1182.074,704.645,1183.175L704.645,1183.175z"/>
			</g>
		</g>
		<g>
			<g>
				<path style="fill:#FFFFFF;" d="M527.145,929.795c-0.155-0.016-0.321-0.053-0.476-0.052c0.269-0.002,0.712,0.108,0.175,0.015
					c-0.268-0.047-0.533-0.104-0.797-0.169c0.828,0.828,1.656,1.656,2.484,2.484c-0.369-1.447-1.198-2.609-2.608-3.204
					c-0.314-0.133-0.63-0.237-0.942-0.368c0.343,0.145,0.687,0.29,1.03,0.435c-0.137-0.064-0.264-0.136-0.384-0.227
					c0.29,0.224,0.579,0.448,0.869,0.672c-0.057-0.049-0.107-0.097-0.156-0.154c0.223,0.289,0.447,0.578,0.67,0.868
					c-0.04-0.054-0.073-0.105-0.104-0.165c0.144,0.341,0.288,0.682,0.431,1.022c-0.024-0.059-0.041-0.112-0.054-0.174
					c0.051,0.379,0.102,0.757,0.153,1.136c-0.01-0.083-0.01-0.159,0.001-0.242c-0.051,0.378-0.102,0.756-0.152,1.133
					c0.018-0.087,0.043-0.167,0.077-0.249c-0.143,0.339-0.286,0.677-0.429,1.016c0.1-0.206,0.404-0.584-0.135,0.115
					c-0.546,0.709-0.204,0.291-0.041,0.119c0.465-0.489-0.941,0.623-0.434,0.335c0.138-0.078,0.267-0.169,0.407-0.243
					c0.131-0.07,0.27-0.124,0.401-0.194c0.655-0.351,0.841-0.636,1.235-1.147c-0.054,0.07,0.842-1.095,0.123-0.161
					c-0.525,0.682-0.124,0.169,0.022,0.017c0.114-0.12,0.235-0.233,0.36-0.342c1.554-1.354,1.149-4.272-0.67-5.197
					c-1.393-0.708-3.058-1.281-4.596-0.67c-1.185,0.471-2.31,1.009-3.188,1.975c-1.262,1.389-1.805,3.17-1.343,5.018
					c0.5,1.998,2.233,3.121,4.03,3.803c1.322,0.502,3.302-0.043,4.212-1.113c0.1-0.118,0.2-0.236,0.301-0.353
					c-0.838,0.347-1.676,0.694-2.515,1.042c0.683,0.034,1.363-0.001,2.044-0.062c1.745-0.157,3.445-1.432,3.359-3.359
					C530.416,931.181,529.024,929.988,527.145,929.795L527.145,929.795z"/>
			</g>
		</g>
		<g>
			<g>
				<path style="fill:#FFFFFF;" d="M842.992,753.585c-0.009-0.616,0.05-1.252,0.011-1.865c-0.053-0.848-0.326,1.221-0.055,0.434
					c0.188-0.545,0.182-1.157,0.237-1.732c0.158-1.64-1.041-3.519-2.451-4.273c-0.008-0.004-0.016-0.008-0.023-0.012
					c0.567,0.567,1.134,1.134,1.7,1.7c-0.066-0.09-0.131-0.181-0.197-0.271c0.139,1.06,0.277,2.119,0.416,3.179
					c0.07-0.238,0.156-0.463,0.235-0.698c-0.326,0.959,0.264-0.631,0.331-0.826c0.284-0.827,0.367-1.676,0.338-2.544
					c-0.04-1.188-0.951-2.105-2.145-2.145c-1.747-0.058-3.402,0.538-4.819,1.553c0.694-0.188,1.388-0.375,2.082-0.563
					c0.3,0.043,0.6,0.085,0.9,0.128c-2.171-0.704-4.404,0.497-5.589,2.274c-1.085,1.628-1.061,3.78-1.089,5.661
					c-0.039,2.647,2.354,5.18,5.058,5.058C840.643,758.522,843.031,756.42,842.992,753.585L842.992,753.585z"/>
			</g>
		</g>
		<g>
			<g>
				<path style="fill:#FFFFFF;" d="M1026.163,745.555c-1.091,1.728-0.449,1.486-1.888,2.314c1.639,0.43,3.279,0.86,4.918,1.289
					c-0.025-0.033-0.05-0.067-0.075-0.1c0.121,0.922,0.241,1.844,0.362,2.767c0.328-1.677,1.208-3.046,1.396-4.841
					c0.166-1.587-1.573-2.425-2.869-2.185c-3.038,0.562-7.262,4.612-5.021,7.987c1.367,2.059,3.802,2.255,5.645,0.727
					c1.281-1.062,1.822-3.674,2.425-5.1C1032.437,745.144,1028.17,742.378,1026.163,745.555L1026.163,745.555z"/>
			</g>
		</g>
		<g>
			<g>
				<path style="fill:#FFFFFF;" d="M1562.462,794.483c-1.231,0.849-2.398,1.76-3.564,2.694c-3.464,2.776,1.651,8.167,4.967,4.967
					c0.493-0.476,0.957-0.993,1.428-1.489c0.815-0.858,1.299-2.205,0.892-3.376c-0.509-1.465-0.938-1.907-2.423-2.423
					c-1.17-0.407-2.518,0.077-3.376,0.892c-0.495,0.471-1.013,0.935-1.488,1.428c-3.198,3.315,2.192,8.433,4.967,4.967
					c0.938-1.17,1.842-2.329,2.694-3.565C1568.236,796.149,1564.894,792.805,1562.462,794.483L1562.462,794.483z"/>
			</g>
		</g>
		<g>
			<g>
				<path style="fill:#FFFFFF;" d="M1673.606,829.703c4.635,0,4.643-7.203,0-7.203
					C1668.971,822.5,1668.963,829.703,1673.606,829.703L1673.606,829.703z"/>
			</g>
		</g>
		<g>
			<g>
				<path style="fill:#FFFFFF;" d="M1673.606,1288.697c4.27,0,4.277-6.637,0-6.637
					C1669.335,1282.06,1669.328,1288.697,1673.606,1288.697L1673.606,1288.697z"/>
			</g>
		</g>
		<g>
			<g>
				<path style="fill:#FFFFFF;" d="M1542.766,1354.437c-0.005-0.322-0.01-0.644-0.015-0.966c-0.032-2.001-1.738-3.922-3.829-3.829
					c-2.047,0.092-3.863,1.683-3.829,3.829c0.022,1.365,0.042,2.73,0.066,4.094c0.033,1.967,1.707,3.856,3.763,3.763
					c2.068-0.093,3.727-1.653,3.763-3.763c0.023-1.365,0.044-2.729,0.066-4.094c0.032-2.004-1.784-3.921-3.829-3.829
					c-2.102,0.094-3.795,1.682-3.829,3.829c-0.005,0.322-0.01,0.644-0.015,0.966c-0.032,2.012,1.791,3.936,3.844,3.844
					C1540.976,1358.189,1542.8,1356.591,1542.766,1354.437L1542.766,1354.437z"/>
			</g>
		</g>
		<g>
			<g>
				<path style="fill:#FFFFFF;" d="M1035.466,1783.659c-0.462-0.882-0.925-1.763-1.398-2.639c-1.121-2.08-4.4-2.08-5.521,0
					c-0.472,0.877-0.936,1.758-1.398,2.639c-0.81,1.545-0.901,3.322,0,4.861c0.857,1.465,2.46,2.385,4.158,2.385
					c1.698,0,3.301-0.92,4.158-2.385C1036.367,1786.981,1036.275,1785.204,1035.466,1783.659L1035.466,1783.659z"/>
			</g>
		</g>
		<g>
			<g>
				<path style="fill:#FFFFFF;" d="M1013.974,1654.803c-0.241,0.224-0.486,0.44-0.742,0.647c0.338-0.261,0.675-0.522,1.013-0.783
					c-0.285,0.217-0.574,0.415-0.898,0.57c0.401-0.169,0.802-0.338,1.203-0.507c-0.156,0.064-0.305,0.113-0.471,0.141
					c0.447-0.06,0.895-0.12,1.342-0.18c-0.067,0.009-0.134,0.01-0.201,0.005c0.448,0.06,0.896,0.12,1.344,0.181
					c-0.118-0.016-0.234-0.04-0.347-0.077c0.401,0.169,0.801,0.338,1.202,0.507c-0.085-0.04-0.152-0.081-0.227-0.138
					c0.337,0.26,0.674,0.52,1.01,0.781c-0.075-0.069-0.137-0.137-0.2-0.216c0.258,0.334,0.516,0.668,0.774,1.001
					c-0.114-0.163-0.203-0.333-0.284-0.514c0.163,0.387,0.327,0.774,0.49,1.161c-0.577-1.422-1.062-2.909-2.545-3.692
					c-0.365-0.154-0.729-0.308-1.094-0.462c0.253,0.195,0.318,0.25,0.194,0.164c-0.072-0.035-0.135-0.099-0.203-0.14
					c-0.55-0.33-1.237-0.491-1.87-0.307c-0.287,0.083-0.581,0.207-0.82,0.392c-0.303,0.234,0.219-0.072,0.265-0.108
					c-0.365,0.154-0.729,0.308-1.094,0.462c-0.534,0.288-0.962,0.681-1.285,1.179c-0.833,1.079-1.228,2.508-1.089,3.868
					c0.121,1.183,0.291,2.223,0.921,3.262c0.986,1.625,2.822,2.83,4.765,2.798c2.383-0.04,4.28-1.287,5.886-2.955
					c1.808-1.877,2.006-5.197,0-7.039C1018.966,1652.924,1016.013,1652.908,1013.974,1654.803L1013.974,1654.803z"/>
			</g>
		</g>
		<g>
			<g>
				<path style="fill:#FFFFFF;" d="M769.893,1530.26c-0.712-0.102-1.496-0.145-2.167-0.424c0.335,0.141,0.67,0.283,1.005,0.424
					c-0.549-0.268,0.916,0.837,0.623,0.495c0.221,0.287,0.443,0.573,0.664,0.86c-0.008-0.013-0.016-0.026-0.024-0.038
					c0.143,0.339,0.286,0.677,0.429,1.016c-0.013-0.026-0.022-0.054-0.025-0.084c0.051,0.378,0.102,0.756,0.152,1.134
					c0-0.015-0.001-0.03-0.001-0.045c-0.051,0.379-0.102,0.758-0.153,1.136c0.017-0.122,0.051-0.242,0.095-0.357
					c-0.143,0.339-0.286,0.678-0.429,1.017c0.166-0.371,0.407-0.706,0.645-1.034c0.119-0.164,0.678-0.894,0.257-0.35
					c-0.571,0.738,0.358-0.416,0.533-0.772c0.21-0.429,0.374-0.886,0.558-1.327c0.225-0.538,0.151-1.422,0-1.97
					c-0.215-0.78-0.695-1.436-1.328-1.924c-1.28-0.989-2.693-0.893-4.114-0.29c-1.076,0.457-2.155,1.361-2.985,2.217
					c-1.256,1.297-1.98,3.009-1.461,4.833c0.592,2.083,2.508,3.287,4.593,3.334c1.042,0.024,2.106-0.213,3.13-0.359
					c0.797-0.113,1.557-0.796,2.018-1.392c0.506-0.655,0.872-1.503,0.834-2.354c-0.031-0.69-0.208-1.35-0.53-1.961
					C771.824,1531.306,770.751,1530.382,769.893,1530.26L769.893,1530.26z"/>
			</g>
		</g>
		<g>
			<g>
				<path style="fill:#FFFFFF;" d="M599.31,1685.592c-0.436,0.443-0.867,0.891-1.319,1.319c-0.173,0.167-0.351,0.329-0.532,0.487
					c0.657-0.477,0.826-0.608,0.505-0.392c-0.937,0.602,1.13-0.212,0.372-0.176c-0.852,0.04-2.19,1.067-2.688,1.655
					c1.526-0.403,3.051-0.806,4.577-1.21c-0.24-0.046-1.362-0.384-0.257,0.004c-0.559-0.196-1.101-0.498-1.672-0.677
					c-1.709-0.534-3.568-0.059-4.544,1.509c-1.447,2.326,0.236,5.278,1.897,7.025c-0.403-0.692-0.806-1.384-1.21-2.076
					c0.567,3.793,4.904,4.93,7.968,3.637c1.773-0.748,3.156-2.166,4.513-3.496c2.015-1.973,2.127-5.659,0-7.611
					C604.787,1683.633,601.42,1683.448,599.31,1685.592L599.31,1685.592z"/>
			</g>
		</g>
		<g>
			<g>
				<path style="fill:#FFFFFF;" d="M423.546,1434.777c4.503-0.342,9.616-3.061,12.35-6.657c0.626-0.823,0.277-2.109-0.361-2.795
					c-1.742-1.872-4.098-1.685-6.413-1.126c-1.845,0.446-3.723,1.78-5.576,1.837C417.896,1426.211,417.97,1435.2,423.546,1434.777
					L423.546,1434.777z"/>
			</g>
		</g>
		<g>
			<g>
				<path style="fill:#FFFFFF;" d="M568.585,1406.411c0.222,0,0.222-0.345,0-0.345
					C568.362,1406.066,568.362,1406.411,568.585,1406.411L568.585,1406.411z"/>
			</g>
		</g>
		<g>
			<g>
				<path style="fill:#FFFFFF;" d="M368.293,981.186c-1.329-0.109-2.319-0.574-3.664-0.151c-4.968,1.56-2.847,9.401,2.158,7.829
					c0.796-0.25,1.577-0.515,2.366-0.793c3.065-1.079,3.07-5.163,0-6.244c-0.789-0.278-1.57-0.543-2.366-0.793
					c-4.996-1.569-7.134,6.266-2.158,7.829c1.345,0.423,2.335-0.042,3.664-0.151C373.129,988.314,373.138,981.585,368.293,981.186
					L368.293,981.186z"/>
			</g>
		</g>
		<g>
			<g>
				<path style="fill:#FFFFFF;" d="M306.137,1334.437c5.364,0,5.373-8.336,0-8.336
					C300.773,1326.1,300.764,1334.437,306.137,1334.437L306.137,1334.437z"/>
			</g>
		</g>
		<g>
			<g>
				<path style="fill:#FFFFFF;" d="M413.556,1811.317c0.249-0.641,0.54-1.279,0.75-1.933c-0.326,1.015-0.057,0.139,0.061-0.134
					c0.106-0.246,0.212-0.491,0.318-0.737c0.095-0.22,0.19-0.44,0.285-0.659c0.846-1.958-0.864-3.667-2.824-2.824
					c-0.22,0.095-0.44,0.189-0.66,0.284c-0.227,0.098-0.453,0.195-0.68,0.293c-0.138,0.06-0.277,0.119-0.415,0.179
					c-0.25,0.108-0.634,0.121,0.223-0.094c-0.654,0.165-1.304,0.503-1.935,0.747c-1.328,0.513-2.374,1.333-2.77,2.77
					c-0.376,1.365,0.02,2.859,1.02,3.858c1,1,2.494,1.396,3.859,1.02C412.224,1813.691,413.041,1812.645,413.556,1811.317
					L413.556,1811.317z"/>
			</g>
		</g>
		<g>
			<g>
				<path style="fill:#FFFFFF;" d="M792.797,2002.064c0.415-0.692,0.865-1.373,1.246-2.085c0.445-0.832,0.743-1.789,1.103-2.665
					c0.603-1.468-1.222-3.288-2.688-2.688c-0.878,0.359-1.83,0.659-2.667,1.1c-0.714,0.376-1.394,0.83-2.087,1.244
					c-2.058,1.229-2.454,4.147-0.753,5.847C788.647,2004.515,791.565,2004.121,792.797,2002.064L792.797,2002.064z"/>
			</g>
		</g>
		<g>
			<g>
				<path style="fill:#FFFFFF;" d="M1342.096,1865.459c4.375,0,4.382-6.798,0-6.798
					C1337.721,1858.661,1337.714,1865.459,1342.096,1865.459L1342.096,1865.459z"/>
			</g>
		</g>
		<g>
			<g>
				<path style="fill:#FFFFFF;" d="M1569.451,1875.875c0.044,1.269,0.143,2.589,0.512,3.809c0.5,1.652,2.031,2.889,3.785,2.882
					c0.012,0,0.025,0,0.037,0c-1.222-0.931-2.445-1.861-3.667-2.792c0.439,1.133,0.925,2.083,1.905,2.84
					c1.082,0.836,2.528,1.22,3.876,0.827c1.959-0.571,3.117-2.109,3.787-3.951c0.351-0.967,0.369-2.021,0.006-2.986
					c-0.151-0.401-0.307-0.815-0.516-1.191c-0.562-1.013-1.781-1.662-2.94-1.321c-0.579,0.171-1,0.512-1.425,0.916
					c-0.074,0.07-0.153,0.135-0.228,0.204c-0.408,0.377,0.684-0.518,0.271-0.211c-0.652,0.484-1.091,0.931-1.525,1.62
					c-0.057,0.092-0.123,0.178-0.181,0.269c-0.259,0.408,0.698-0.783,0.246-0.336c-0.17,0.168-0.805,0.703-0.141,0.19
					c0.761-0.588-0.423,0.103,0.502-0.284c0.749-0.313,0.458-0.175,0.318-0.138c-0.368,0.098,0.945-0.103,0.805-0.097
					c-0.532,0.021,1.011,0.184,0.696,0.094c-0.139-0.04,0.99,0.43,0.754,0.307c-0.322-0.168,0.866,0.757,0.575,0.43
					c0.072,0.081,0.67,0.966,0.378,0.45c0.136,0.241,0.366,1.023,0.171,0.346c-0.583,1.432-1.165,2.863-1.748,4.295
					c0.008-0.005,0.017-0.011,0.025-0.017c1.498-1.002,2.231-2.657,1.804-4.433c-0.058-0.242-0.101-0.484-0.135-0.729
					c0.047,0.35,0.094,0.699,0.141,1.049c-0.08-0.679-0.092-1.359-0.076-2.042c0.048-2.097-1.877-4.102-4.006-4.006
					C1571.349,1871.963,1569.373,1873.631,1569.451,1875.875L1569.451,1875.875z"/>
			</g>
		</g>
		<g>
			<g>
				<path style="fill:#FFFFFF;" d="M1451.698,1577.991c3.055-3.016,7.647-4.257,9.619-8.392c0.685-1.437-0.506-3.87-2.376-3.091
					c-4.356,1.813-8.772,3.146-12.336,6.39C1443.182,1576.013,1448.384,1581.262,1451.698,1577.991L1451.698,1577.991z"/>
			</g>
		</g>
		<g>
			<g>
				<path style="fill:#FFFFFF;" d="M1741.856,1541.443c-1.107,0.156-2.214,0.312-3.322,0.468c-1.05,0.148-1.917,1.45-1.872,2.458
					c0.046,1.021,0.748,2.3,1.872,2.458c1.107,0.156,2.214,0.312,3.322,0.468c1.073,0.151,2.16,0.083,2.953-0.781
					c0.545-0.594,0.889-1.324,0.889-2.146c0-0.778-0.339-1.596-0.889-2.146C1743.969,1541.383,1742.968,1541.286,1741.856,1541.443
					L1741.856,1541.443z"/>
			</g>
		</g>
		<g>
			<g>
				<path style="fill:#FFFFFF;" d="M1815.182,1330.441c0.222,0,0.223-0.345,0-0.345
					C1814.96,1330.096,1814.96,1330.441,1815.182,1330.441L1815.182,1330.441z"/>
			</g>
		</g>
		<g>
			<g>
				<path style="fill:#FFFFFF;" d="M1755.505,1126.47c-0.95,0.158-1.9,0.315-2.849,0.472c-0.503,0.083-0.901-0.036,0.371-0.036
					c-1.609,0-3.15,1.415-3.076,3.076c0.075,1.666,1.351,3.075,3.076,3.075c0.16,0-1.125-0.173-0.758-0.1
					c0.128,0.025,0.258,0.043,0.386,0.064c0.95,0.157,1.899,0.315,2.849,0.472c1.275,0.211,2.608,0.082,3.543-0.937
					c0.654-0.713,1.067-1.589,1.067-2.575c0-0.934-0.406-1.915-1.067-2.575C1758.057,1126.415,1756.826,1126.251,1755.505,1126.47
					L1755.505,1126.47z"/>
			</g>
		</g>
		<g>
			<g>
				<path style="fill:#FFFFFF;" d="M1504.992,1153.073c0.424-0.816,0.848-1.633,1.272-2.449c0.484-0.933,0.877-1.863,0.823-2.94
					c-0.042-0.833-0.291-1.641-0.889-2.239c-0.598-0.598-1.406-0.847-2.239-0.889c-1.078-0.054-2.007,0.339-2.94,0.823
					c-0.816,0.424-1.633,0.848-2.449,1.271c-2.709,1.406-3.003,5.319-0.95,7.372
					C1499.673,1156.077,1503.586,1155.78,1504.992,1153.073L1504.992,1153.073z"/>
			</g>
		</g>
		<g>
			<g>
				<path style="fill:#FFFFFF;" d="M1455.952,783.172c0.467-0.691,0.934-1.381,1.401-2.072c0.586-0.867,1.028-1.656,0.988-2.769
					c-0.007-0.192-0.014-0.384-0.021-0.577c-0.045-1.257-1.003-2.221-2.266-2.266c-0.192-0.007-0.384-0.014-0.577-0.021
					c-1.083-0.039-1.912,0.409-2.769,0.988c-0.691,0.467-1.381,0.934-2.072,1.401c-1.115,0.754-1.987,1.937-1.924,3.354
					c0.046,1.03,0.394,2.003,1.138,2.747c0.704,0.704,1.751,1.138,2.747,1.138C1454.037,785.096,1455.17,784.328,1455.952,783.172
					L1455.952,783.172z"/>
			</g>
		</g>
		<g>
			<g>
				<path style="fill:#FFFFFF;" d="M1329.105,1072.101c-0.474,0.453-1.088,0.974-1.535,1.501c1.766,1.766,3.531,3.531,5.297,5.297
					c0.519-0.612,1.027-1.201,1.402-1.916c1.644-3.131-1.649-6.421-4.782-4.782c-0.715,0.374-1.304,0.882-1.917,1.401
					c-3.687,3.116,1.635,8.393,5.297,5.297c0.528-0.446,1.049-1.06,1.503-1.533
					C1337.693,1073.905,1332.571,1068.781,1329.105,1072.101L1329.105,1072.101z"/>
			</g>
		</g>
		<g>
			<g>
				<path style="fill:#FFFFFF;" d="M1083.862,849.382c-0.063-0.008-0.126-0.016-0.188-0.024c0.414,0.056,0.828,0.111,1.242,0.167
					c-0.33-0.054-0.642-0.135-0.953-0.258c0.381,0.161,0.761,0.321,1.142,0.482c-0.209-0.095-0.401-0.204-0.586-0.34
					c0.327,0.253,0.655,0.506,0.982,0.759c-0.199-0.165-0.399-0.356-0.564-0.555c0.254,0.328,0.507,0.656,0.761,0.984
					c-0.08-0.111-0.145-0.222-0.2-0.347c0.162,0.385,0.325,0.769,0.487,1.154c-0.033-0.094-0.058-0.181-0.077-0.279
					c0.057,0.426,0.115,0.852,0.172,1.278c-0.016-0.13-0.017-0.252-0.004-0.383c-0.057,0.423-0.114,0.846-0.17,1.269
					c0.023-0.133,0.059-0.254,0.11-0.379c-0.159,0.378-0.319,0.755-0.478,1.133c0.048-0.097,0.098-0.183,0.158-0.273
					c-0.246,0.318-0.491,0.636-0.737,0.954c0.406-0.524,0.767-1.075,1.166-1.596c-0.231,0.299-0.462,0.598-0.693,0.897
					c0.07-0.082,0.149-0.155,0.218-0.237c0.38-0.444-0.409,0.3-0.457,0.338c0.715-0.571,1.285-1.057,1.655-1.935
					c0.24-0.568,0.388-0.872,0.356-1.582c-0.061-1.364-0.753-2.805-2.011-3.47c-0.825-0.436-1.572-0.571-2.501-0.651
					c-2.25-0.193-4.395,1.005-5.461,2.987c-1.232,2.291-0.935,5.322,0.942,7.2c1.468,1.469,3.62,2.195,5.689,2.013
					c1.256-0.11,2.373-0.445,3.291-1.363c0.807-0.807,1.415-2.131,1.363-3.291c-0.054-1.204-0.449-2.452-1.363-3.291
					c-0.314-0.243-0.628-0.485-0.942-0.728C1085.485,849.596,1084.702,849.385,1083.862,849.382L1083.862,849.382z"/>
			</g>
		</g>
		<g>
			<g>
				<path style="fill:#FFFFFF;" d="M1008.253,667.924c-1.403,1.666-2.977,3.306-3.727,5.39c-0.537,1.493-0.448,3.056-0.317,4.608
					c0.399,4.733,6.961,4.739,7.365,0c0.029-0.344,0.068-0.688,0.092-1.032c0.066-0.926-0.244,0.684,0.009-0.05
					c0.012-0.034,0.122-0.64,0.17-0.642c0.029-0.001-0.479,0.932-0.028,0.189c0.365-0.6-0.662,0.611-0.024,0.066
					c0.23-0.196,0.433-0.432,0.656-0.637c0.642-0.591,1.318-1.148,1.984-1.711c1.753-1.482,1.64-4.675,0-6.181
					C1012.812,666.435,1009.825,666.057,1008.253,667.924L1008.253,667.924z"/>
			</g>
		</g>
		<g>
			<g>
				<path style="fill:#FFFFFF;" d="M1007.135,966.321c-2.982,0.143-6.688-0.111-8.854,2.346c-1.308,1.483-1.315,3.447,0,4.939
					c2.162,2.452,5.876,2.203,8.854,2.346c2.52,0.121,4.928-2.301,4.816-4.816C1011.838,968.631,1009.83,966.192,1007.135,966.321
					L1007.135,966.321z"/>
			</g>
		</g>
		<g>
			<g>
				<path style="fill:#FFFFFF;" d="M1353.323,817.961c0.222,0,0.223-0.345,0-0.345
					C1353.101,817.616,1353.101,817.961,1353.323,817.961L1353.323,817.961z"/>
			</g>
		</g>
		<g>
			<g>
				<path style="fill:#FFFFFF;" d="M847.13,863.326c-0.943,0.191-1.887,0.382-2.83,0.573c-0.606,0.123-0.833-0.042,0.536-0.042
					c-1.926,0-3.772,1.694-3.682,3.682c0.089,1.995,1.618,3.682,3.682,3.682c0.194,0-1.321-0.224-0.919-0.12
					c0.125,0.033,0.256,0.052,0.383,0.078c0.943,0.191,1.887,0.382,2.83,0.573c1.506,0.305,3.157,0.069,4.252-1.124
					c0.785-0.855,1.28-1.906,1.28-3.09c0-1.121-0.487-2.298-1.28-3.09C850.222,863.29,848.689,863.01,847.13,863.326L847.13,863.326
					z"/>
			</g>
		</g>
		<g>
			<g>
				<path style="fill:#FFFFFF;" d="M755.056,691.602c0.222,0,0.223-0.345,0-0.345C754.834,691.257,754.834,691.602,755.056,691.602
					L755.056,691.602z"/>
			</g>
		</g>
		<g>
			<g>
				<path style="fill:#FFFFFF;" d="M842.254,1213.679c1.778-0.03,3.767,0.011,5.085-1.389c1.481-1.573,1.697-5.096-0.084-6.486
					c-1.022-0.798-2.059-0.805-3.09,0c-0.985,0.769-1.156,1.964-1.272,3.132c-0.011,0.109-0.036,0.248-0.032,0.357
					c-0.028-0.771,0.11-0.634,0.034-0.345c-0.018,0.067-0.074,0.178-0.072,0.248c0.248-0.545,0.311-0.7,0.189-0.465
					c-0.09,0.142-0.044,0.085,0.141-0.17c0.447-0.578-0.266,0.136,0.31-0.317c0.256-0.183,0.312-0.232,0.168-0.145
					c0.567-0.224,0.722-0.29,0.465-0.197c-0.078,0.011-0.178,0.037-0.25,0.064c-0.385,0.141,0.816-0.052,0.352-0.048
					c-0.648,0.005-1.294,0.026-1.943,0.015c-1.504-0.025-2.942,1.34-2.873,2.873C839.45,1212.341,840.644,1213.707,842.254,1213.679
					L842.254,1213.679z"/>
			</g>
		</g>
		<g>
			<g>
				<path style="fill:#FFFFFF;" d="M1049.331,611.313c-1.181,0.109-2.362,0.125-3.532,0.322c0.368-0.049,0.735-0.099,1.103-0.148
					c-0.124,0.016-0.245,0.023-0.37,0.014c0.354,0.048,0.708,0.095,1.062,0.143c-0.705-0.102,1.007,0.542,0.511,0.238
					c0.92,0.563,0.822,0.682,0.562,0.408c0.483,0.631,0.632,0.826,0.448,0.585c-0.195-0.255-0.391-0.509-0.588-0.761
					c-0.073-0.081-0.322-0.262-0.338-0.374c0.03,0.218,0.672,0.867,0.058,0.071c-0.414-0.535-0.918-0.893-1.578-1.084
					c-1.619-0.467-2.986,0.57-3.722,1.979c-0.973,1.861-0.706,4.243,0.854,5.722c0.749,0.71,1.654,1.269,2.68,1.447
					c0.942,0.162,1.899,0.253,2.85,0.341c1.073,0.1,2.412-0.568,3.147-1.304c0.772-0.772,1.354-2.039,1.304-3.148
					C1053.682,613.537,1051.814,611.082,1049.331,611.313L1049.331,611.313z"/>
			</g>
		</g>
		<g>
			<g>
				<path style="fill:#FFFFFF;" d="M1353.323,790.335c0.222,0,0.223-0.345,0-0.345
					C1353.101,789.989,1353.101,790.335,1353.323,790.335L1353.323,790.335z"/>
			</g>
		</g>
		<g>
			<g>
				<path style="fill:#FFFFFF;" d="M855.194,953.761c-1.348,0.017-2.829-0.124-4.147,0.182c-3.339,0.776-3.342,5.981,0,6.758
					c1.318,0.306,2.798,0.165,4.147,0.182c1.863,0.023,3.647-1.655,3.561-3.561C858.67,955.413,857.19,953.736,855.194,953.761
					L855.194,953.761z"/>
			</g>
		</g>
		<g>
			<g>
				<path style="fill:#FFFFFF;" d="M761.959,1136.913c4.479,0,4.486-6.96,0-6.96C757.48,1129.953,757.473,1136.913,761.959,1136.913
					L761.959,1136.913z"/>
			</g>
		</g>
		<g>
			<g>
				<path style="fill:#FFFFFF;" d="M774.892,973.712c0.321-0.324,0.642-0.648,0.962-0.972c1.338-1.354,1.452-3.806,0-5.14
					c-1.452-1.333-3.701-1.435-5.14,0c-0.604,0.602-1.2,1.213-1.8,1.819c-1.113,1.124-2.825,2.427-3.188,4.005
					c-0.611,2.651,1.651,4.909,4.3,4.3c1.574-0.361,2.884-2.077,4.007-3.186c0.607-0.599,1.21-1.203,1.821-1.799
					c-1.713-1.713-3.426-3.426-5.14-5.14c-0.324,0.321-0.649,0.641-0.973,0.961c-1.357,1.341-1.443,3.826,0,5.151
					C771.189,975.041,773.46,975.159,774.892,973.712L774.892,973.712z"/>
			</g>
		</g>
		<g>
			<g>
				<path style="fill:#FFFFFF;" d="M592.215,1147.248c-0.014,0.151,0.205-0.277,0.04-0.142c-0.138,0.113-0.213,0.355-0.389,0.475
					c-0.497,0.337-1.161,0.056-0.145,0.259c1.416,0.283,2.525,1.198,3.924,1.476c1.613,0.321,3.035-0.974,2.638-2.638
					c-0.66-2.77-4.138-5.288-6.963-5.119c-3.103,0.185-4.973,2.702-4.932,5.689C586.44,1151.054,591.883,1150.931,592.215,1147.248
					L592.215,1147.248z"/>
			</g>
		</g>
		<g>
			<g>
				<path style="fill:#FFFFFF;" d="M782.68,1299.703c5.104,0,5.112-7.932,0-7.932
					C777.577,1291.771,777.568,1299.703,782.68,1299.703L782.68,1299.703z"/>
			</g>
		</g>
		<g>
			<g>
				<path style="fill:#FFFFFF;" d="M666.112,1400.515c0.067-0.235,0.134-0.469,0.201-0.704c0.057-0.2,0.115-0.401,0.172-0.601
					c0.013-0.046,0.096-0.442,0.128-0.448c-0.057,0.01-0.427,0.948-0.142,0.321c0.392-0.861,0.732-1.638,0.796-2.607
					c0.013-0.198,0.022-0.397,0.032-0.595c0.057-1.052-0.974-2.079-2.023-2.023c-0.199,0.01-0.397,0.019-0.596,0.031
					c-0.975,0.062-1.741,0.403-2.609,0.794c-0.466,0.21-0.143-0.122,0.32-0.142c-0.124,0.005-0.274,0.078-0.394,0.112
					c-0.219,0.062-0.438,0.124-0.657,0.187c-0.235,0.067-0.47,0.133-0.705,0.2c-3.215,0.913-4.347,5.057-1.964,7.44
					C661.059,1404.865,665.195,1403.727,666.112,1400.515L666.112,1400.515z"/>
			</g>
		</g>
		<g>
			<g>
				<path style="fill:#FFFFFF;" d="M844.836,1526.988c-0.862,0.054-1.723,0.108-2.585,0.162c-5.942,0.372-2.763,9.226,1.716,6.334
					c0.487-0.263,0.974-0.526,1.461-0.789c2.098-0.863,2.102-3.428,0-4.292c-0.487-0.263-0.974-0.526-1.461-0.789
					c-4.454-2.875-7.7,5.96-1.716,6.334c0.862,0.054,1.723,0.108,2.585,0.162C849.418,1534.398,849.426,1526.701,844.836,1526.988
					L844.836,1526.988z"/>
			</g>
		</g>
		<g>
			<g>
				<path style="fill:#FFFFFF;" d="M697.428,1589.259c0-1.073,0-2.147,0-3.22c0-2.371-2.085-4.642-4.532-4.532
					c-2.456,0.11-4.532,1.991-4.532,4.532c0,1.073,0,2.147,0,3.22c0,2.371,2.085,4.642,4.532,4.532
					C695.351,1593.682,697.428,1591.8,697.428,1589.259L697.428,1589.259z"/>
			</g>
		</g>
		<g>
			<g>
				<path style="fill:#FFFFFF;" d="M948.43,1630.547c-0.589-0.022-1.177-0.026-1.764,0.034c0.867,0.359,1.734,0.718,2.601,1.077
					c-0.065-0.069-0.129-0.137-0.194-0.206c-1.005-1.066-2.624-1.436-4.016-1.062c-2.467,0.664-4.386,3.132-3.595,5.764
					c0.481,1.6,1.641,2.815,3.114,3.563c2.703,1.372,6.09,2.238,8.842,0.507c1.993-1.254,1.919-3.973,0-5.241
					c-0.231-0.153-0.763-0.548,0.214,0.189c-0.304-0.23-0.53-0.484-0.885-0.693c-0.257-0.151-0.531-0.269-0.799-0.406
					c-0.871-0.448-1.759-0.822-2.663-1.202c0.326,0.137,0.651,0.275,0.977,0.412c-0.565-0.245-1.123-0.516-1.638-0.857
					c-0.773-0.512,0.902,0.793,0.221,0.166c-0.062-0.057-0.122-0.121-0.187-0.174c-0.394-0.32,0.717,1.103,0.46,0.569
					c0.141,0.333,0.281,0.666,0.422,0.999c-0.015-0.035-0.026-0.071-0.033-0.108c0.05,0.37,0.099,0.74,0.149,1.11
					c-0.006-0.035-0.008-0.07-0.004-0.106c-0.05,0.37-0.099,0.739-0.149,1.109c0.003-0.035,0.012-0.069,0.025-0.102
					c-0.14,0.332-0.28,0.663-0.42,0.995c-0.104,0.212-0.577,0.706-0.864,0.93c-0.659,0.514-0.329,0.251-0.109,0.157
					c-0.329,0.139-0.658,0.278-0.987,0.417c1.604-0.598,2.515-1.53,3.064-3.153c-0.856,0.856-1.713,1.712-2.569,2.569
					c0.893-0.17-0.817,0.054-0.107,0.006c0.298-0.02,0.595-0.047,0.894-0.061c1.879-0.092,3.692-1.59,3.602-3.601
					C951.942,1632.138,950.45,1630.622,948.43,1630.547L948.43,1630.547z"/>
			</g>
		</g>
		<g>
			<g>
				<path style="fill:#FFFFFF;" d="M1093.374,1697.284c0.169,0.95,0.337,1.899,0.506,2.849c0.091,0.512-0.031,0.879-0.031-0.371
					c0,1.609,1.415,3.15,3.076,3.076c1.666-0.075,3.075-1.351,3.075-3.076c0-0.156-0.18,1.12-0.099,0.758
					c0.028-0.127,0.046-0.258,0.069-0.386c0.169-0.95,0.337-1.899,0.506-2.849c0.228-1.283,0.075-2.645-0.947-3.583
					c-0.721-0.661-1.606-1.079-2.604-1.079c-0.944,0-1.936,0.411-2.604,1.079
					C1093.326,1694.695,1093.137,1695.955,1093.374,1697.284L1093.374,1697.284z"/>
			</g>
		</g>
		<g>
			<g>
				<path style="fill:#FFFFFF;" d="M1090.012,1821.118c-0.59,0.048-1.181,0.086-1.768,0.165c-0.62,0.083-1.159,0.35-1.721,0.607
					c-0.437,0.2-0.841,0.39-1.155,0.777c-0.732,0.904-0.737,1.899,0,2.81c0.315,0.39,0.717,0.576,1.155,0.777
					c0.439,0.201,0.875,0.441,1.344,0.557c0.672,0.165,1.455,0.159,2.145,0.215c1.544,0.126,3.021-1.449,2.954-2.954
					C1092.899,1822.579,1091.661,1820.983,1090.012,1821.118L1090.012,1821.118z"/>
			</g>
		</g>
		<g>
			<g>
				<path style="fill:#FFFFFF;" d="M931.17,1873.292c5.572,0,5.581-8.66,0-8.66C925.597,1864.632,925.588,1873.292,931.17,1873.292
					L931.17,1873.292z"/>
			</g>
		</g>
		<g>
			<g>
				<path style="fill:#FFFFFF;" d="M1383.535,1607.439c5.624,0,5.634-8.741,0-8.741
					C1377.91,1598.698,1377.901,1607.439,1383.535,1607.439L1383.535,1607.439z"/>
			</g>
		</g>
		<g>
			<g>
				<path style="fill:#FFFFFF;" d="M1335.193,1783.836c5.989,0,5.999-9.307,0-9.307
					C1329.205,1774.528,1329.195,1783.836,1335.193,1783.836L1335.193,1783.836z"/>
			</g>
		</g>
		<g>
			<g>
				<path style="fill:#FFFFFF;" d="M1294.969,1767.605c2.196,1.964,4.799,3.714,7.864,3.013c2.602-0.595,4.744-2.155,6.129-4.428
					c0.874-1.434-0.83-2.949-2.215-2.215c-1.132,0.6-2.482,1.594-3.819,1.313c-1.379-0.29-2.526-1.187-3.496-2.148
					C1296.531,1760.265,1291.949,1764.903,1294.969,1767.605L1294.969,1767.605z"/>
			</g>
		</g>
		<g>
			<g>
				<path style="fill:#FFFFFF;" d="M1418.066,1724.107c0.222,0,0.223-0.345,0-0.345
					C1417.844,1723.761,1417.844,1724.107,1418.066,1724.107L1418.066,1724.107z"/>
			</g>
		</g>
		<g>
			<g>
				<path style="fill:#FFFFFF;" d="M1521.661,1530.722c0.222,0,0.223-0.345,0-0.345
					C1521.438,1530.377,1521.438,1530.722,1521.661,1530.722L1521.661,1530.722z"/>
			</g>
		</g>
		<g>
			<g>
				<path style="fill:#FFFFFF;" d="M1481.598,1511.377c1.366-0.356,2.766-1.17,3.78-2.146c1.954-1.882,2.687-4.682,1.811-7.268
					c-0.499-1.471-1.859-2.748-3.512-2.674c-1.716,0.077-2.915,1.106-3.512,2.674c0.41-1.076,0.24-0.525,0.098-0.271
					c-0.405,0.726,0.416-0.422,0.255-0.273c-0.211,0.195-0.404,0.397-0.629,0.578c0.297-0.229,0.594-0.459,0.891-0.688
					c-0.194,0.142-0.396,0.258-0.615,0.356c0.365-0.154,0.73-0.308,1.095-0.462c-0.27,0.109-0.545,0.181-0.833,0.227
					c0.426-0.057,0.851-0.114,1.277-0.172c-0.387,0.052-0.774,0.049-1.162,0.001c0.452,0.061,0.904,0.121,1.356,0.182
					c-0.101-0.014-0.203-0.029-0.302-0.054c-3.258-0.805-6.557,1.581-6.557,4.995
					C1475.042,1509.753,1478.343,1512.226,1481.598,1511.377L1481.598,1511.377z"/>
			</g>
		</g>
		<g>
			<g>
				<path style="fill:#FFFFFF;" d="M1590.729,1354.609c0.222,0,0.223-0.345,0-0.345
					C1590.506,1354.264,1590.506,1354.609,1590.729,1354.609L1590.729,1354.609z"/>
			</g>
		</g>
		<g>
			<g>
				<path style="fill:#FFFFFF;" d="M1528.573,1251.02c0.222,0,0.223-0.345,0-0.345
					C1528.351,1250.674,1528.35,1251.02,1528.573,1251.02L1528.573,1251.02z"/>
			</g>
		</g>
		<g>
			<g>
				<path style="fill:#FFFFFF;" d="M1583.816,1178.5c0.222,0,0.223-0.345,0-0.345
					C1583.594,1178.155,1583.593,1178.5,1583.816,1178.5L1583.816,1178.5z"/>
			</g>
		</g>
		<g>
			<g>
				<path style="fill:#FFFFFF;" d="M1454.372,1157.611c-0.027-1.03-0.054-2.059-0.08-3.089c-0.07-2.686-2.314-5.266-5.14-5.14
					c-2.845,0.127-5.065,2.258-5.14,5.14c-0.027,1.03-0.053,2.059-0.08,3.089c-0.071,2.732,2.452,5.344,5.22,5.22
					C1451.919,1162.708,1454.448,1160.536,1454.372,1157.611L1454.372,1157.611z"/>
			</g>
		</g>
		<g>
			<g>
				<path style="fill:#FFFFFF;" d="M1505.4,1215.574c-2.186,1.463-4.202,3.145-6.281,4.755c0.388-0.3,0.777-0.6,1.165-0.9
					c-0.223,0.172-0.447,0.344-0.672,0.514c2.365,0.305,4.731,0.61,7.096,0.916c-0.089-0.077-0.177-0.154-0.266-0.231
					c0.363,2.81,0.725,5.62,1.088,8.431c0.736-1.656,1.663-3.165,2.225-4.907c-0.213,0.506-0.427,1.011-0.64,1.517
					c0.801-1.422,1.422-2.88,1.925-4.434c0.519-1.603,1.039-3.214,0.979-4.924c-0.047-1.337-0.587-2.458-1.643-3.273
					c-0.97-0.75-2.419-1.205-3.634-0.746c-0.942,0.356-1.783,0.74-2.6,1.316c-0.887,0.625-1.717,1.334-2.561,2.016
					c-0.474,0.383-1.005,0.742-1.436,1.172c-0.396,0.395-0.684,0.924-1.125,1.269c0.431-0.333,0.863-0.667,1.294-1
					c-1.064,0.778-1.921,1.535-2.782,2.492c-0.316,0.351-0.633,0.703-0.929,1.071c-0.862,0.868-1.459,1.891-1.789,3.07
					c-0.331,1.233-0.331,2.466,0,3.699c0.578,2.1,2.056,3.676,4.028,4.508c2.027,0.855,4.262,0.779,6.192-0.351
					c1.949-1.141,3.69-3.641,3.446-6.007c-0.019-0.183-0.038-0.365-0.057-0.548c-0.572,1.38-1.143,2.76-1.715,4.141
					c1.866-2.233,3.718-4.503,5.336-6.921c1.146-1.713,0.75-4.499-0.759-5.885C1509.758,1214.932,1507.231,1214.348,1505.4,1215.574
					L1505.4,1215.574z"/>
			</g>
		</g>
		<g>
			<g>
				<path style="fill:#FFFFFF;" d="M1561.108,1125.17c-0.024-0.118-0.042-0.237-0.057-0.356c0.06,0.445,0.12,0.891,0.18,1.336
					c-0.031-0.324-0.035-0.638,0.005-0.961c-0.058,0.428-0.115,0.857-0.173,1.285c0.039-0.229,0.095-0.447,0.177-0.664
					c-0.158,0.374-0.316,0.748-0.473,1.122c0.116-0.27,0.276-0.493,0.427-0.74c0.062-0.102,0.127-0.218,0.18-0.325
					c0.285-0.575-0.783,0.899-0.391,0.495c0.146-0.15,0.296-0.291,0.445-0.437c0.325-0.317-0.925,0.633-0.52,0.403
					c0.518-0.293,1.128-0.844,1.389-1.393c0.719-1.513,0.595-3.105-0.562-4.358c-1.267-1.373-3.884-1.517-5.588-1.032
					c-2.502,0.711-4.333,3.161-4.873,5.626c-0.381,1.744-0.065,3.698,1.311,4.961c0.998,0.916,2.224,1.493,3.605,1.493
					c1.307,0,2.681-0.569,3.605-1.493C1561.173,1128.755,1561.437,1127.009,1561.108,1125.17L1561.108,1125.17z"/>
			</g>
		</g>
	</g>
	<g>
		<g>
			<g>
				<g>
					<path style="fill:#FFFFFF;" d="M1366.064,1322.629c-11.78-51.506-36.655-99.447-74.423-136.67
						c-33.283-32.803-75.668-56.233-121.728-64.909c-47.117-8.876-94.893-1.006-138.381,18.594
						c-47.99,21.629-89.995,57.256-118.308,101.7c-28.722,45.086-42.17,98.829-35.569,152.077
						c6.701,54.055,32.869,106.761,67.415,148.403c33.223,40.045,77.964,72.163,129.082,84.292
						c25.317,6.007,51.574,6.861,77.233,2.58c26.026-4.343,50.667-14.432,74.101-26.311c43.301-21.95,82.911-52.751,110.781-92.85
						c29.641-42.647,42.465-94.403,38.238-146.021c-0.552-6.739-1.375-13.458-2.411-20.139c-1.148-7.402-4.245-13.797-7.449-20.53
						c-0.292-0.614-1.237-0.289-1.237,0.335c-0.004,7.323-0.457,14.354,0.634,21.608c1.046,6.953,1.79,13.952,2.252,20.968
						c0.881,13.376,0.693,26.826-0.708,40.161c-2.531,24.087-9.328,47.794-20.013,69.529c-20.76,42.23-54.823,76.226-94.201,101.407
						c-41.754,26.7-89.893,47.19-140.275,44.999c-50.152-2.181-96.932-25.675-133.409-59.355
						c-38.647-35.684-66.98-82.403-82.499-132.555c-15.581-50.352-12.309-104.649,8.468-153.087
						c20.042-46.727,55.228-86.961,98.157-114.064c40.363-25.483,88.404-41.278,136.441-39.442
						c44.572,1.704,88.025,17.895,124.024,43.999c40.465,29.342,70.613,71.34,88.198,117.933
						c4.733,12.541,8.554,25.397,11.603,38.447C1362.687,1326.316,1366.657,1325.22,1366.064,1322.629z"/>
				</g>
			</g>
			<g>
				<g>
					<g>
						<path style="fill:#FFFFFF;" d="M1365.776,1346.191c-4.684,9.989-7.323,21.397-10.945,31.836
							c-3.846,11.088-8.209,21.979-12.952,32.713c-9.575,21.671-21.941,41.626-33.293,62.348c-0.423,0.772,0.669,1.725,1.274,0.983
							c15.038-18.444,26.606-40.139,36.379-61.739c4.654-10.287,8.716-20.845,12.373-31.525c3.684-10.761,8.043-22.745,8.951-34.131
							C1367.637,1345.746,1366.176,1345.34,1365.776,1346.191L1365.776,1346.191z"/>
					</g>
				</g>
				<g>
					<g>
						<path style="fill:#FFFFFF;" d="M1354.389,1353.263c-2.563,4.117-4.049,8.978-6.042,13.406
							c-2.152,4.782-4.38,9.535-6.667,14.254c-4.474,9.231-9.271,18.303-14.272,27.258c-10.106,18.1-21.255,35.644-30.978,53.951
							c-0.475,0.895,0.763,1.582,1.338,0.782c12.255-17.08,23.249-35.22,33.492-53.567c4.998-8.953,9.792-18.023,14.256-27.255
							c2.152-4.451,4.197-8.944,6.135-13.493c1.942-4.56,4.439-9.354,5.367-14.229
							C1357.316,1352.806,1355.285,1351.824,1354.389,1353.263L1354.389,1353.263z"/>
					</g>
				</g>
				<g>
					<g>
						<path style="fill:#FFFFFF;" d="M1331.572,1370.175c-2.571,2.253-3.926,5.659-5.539,8.638
							c-1.876,3.466-3.704,6.958-5.515,10.459c-3.561,6.885-7.054,13.805-10.586,20.705c-7.18,14.029-14.81,27.889-23.579,40.996
							c-0.712,1.064,0.967,2.396,1.796,1.385c9.95-12.132,17.639-25.7,24.858-39.581c3.711-7.136,7.243-14.363,10.867-21.543
							c1.777-3.52,3.571-7.032,5.413-10.519c1.587-3.003,3.762-5.957,4.381-9.32
							C1333.896,1370.157,1332.546,1369.322,1331.572,1370.175L1331.572,1370.175z"/>
					</g>
				</g>
				<g>
					<g>
						<path style="fill:#FFFFFF;" d="M1311.801,1385.03c-5.504,8.191-9.067,18.137-13.522,26.947
							c-4.618,9.133-9.58,18.064-14.566,26.998c-10.026,17.964-21.007,35.308-32.406,52.424c-0.481,0.721,0.657,1.625,1.216,0.938
							c13.048-16.02,24.63-33.277,35.091-51.082c5.177-8.812,9.89-17.924,14.434-27.076c4.395-8.851,9.923-18.453,12.18-28.127
							C1314.575,1384.562,1312.64,1383.781,1311.801,1385.03L1311.801,1385.03z"/>
					</g>
				</g>
				<g>
					<g>
						<path style="fill:#FFFFFF;" d="M1292.771,1398.722c-6.777,8.931-11.706,19.892-17.291,29.622
							c-5.781,10.072-11.778,20.014-17.729,29.985c-11.903,19.943-24.799,39.38-35.641,59.934c-0.429,0.813,0.685,1.425,1.21,0.707
							c13.916-19.023,26.089-39.364,38.333-59.485c6.033-9.915,11.816-19.989,17.484-30.117
							c5.315-9.497,11.785-19.628,15.049-30.049C1294.469,1398.414,1293.264,1398.072,1292.771,1398.722L1292.771,1398.722z"/>
					</g>
				</g>
				<g>
					<g>
						<path style="fill:#FFFFFF;" d="M1270.883,1410.952c-4.142,5.402-6.571,12.641-9.682,18.699
							c-3.262,6.353-6.718,12.602-10.2,18.836c-6.943,12.43-14.466,24.527-21.833,36.706c-0.683,1.129,0.966,1.993,1.719,1.005
							c8.851-11.603,16.609-23.95,23.74-36.673c3.493-6.232,6.708-12.621,9.789-19.066c2.805-5.868,6.702-12.506,7.747-18.967
							C1272.294,1410.687,1271.372,1410.314,1270.883,1410.952L1270.883,1410.952z"/>
					</g>
				</g>
				<g>
					<g>
						<path style="fill:#FFFFFF;" d="M1250.055,1425.529c-7.515,9.927-13.055,21.746-19.618,32.348
							c-6.797,10.978-13.962,21.717-20.83,32.648c-6.737,10.723-13.454,21.463-19.833,32.404
							c-6.269,10.754-12.858,21.769-17.347,33.413c-0.123,0.32,0.371,0.505,0.539,0.227c6.633-10.963,12.585-22.301,19.439-33.147
							c6.938-10.979,14.244-21.711,21.489-32.487c7.025-10.45,13.897-21.054,20.449-31.809
							c6.268-10.288,13.801-21.328,17.195-32.972C1251.814,1425.207,1250.577,1424.84,1250.055,1425.529L1250.055,1425.529z"/>
					</g>
				</g>
				<g>
					<g>
						<path style="fill:#FFFFFF;" d="M1226.114,1440.867c-5.335,2.229-8.637,9.329-11.607,14.023
							c-6.099,9.643-11.509,19.761-17.349,29.566c-13.198,22.161-26.915,43.855-40.999,65.456c-0.495,0.76,0.681,1.699,1.274,0.983
							c15.832-19.108,29.594-40.364,42.36-61.605c6.018-10.013,11.881-20.109,17.631-30.274c3.21-5.676,8.007-10.774,9.87-16.97
							C1227.485,1441.408,1226.804,1440.579,1226.114,1440.867L1226.114,1440.867z"/>
					</g>
				</g>
				<g>
					<g>
						<path style="fill:#FFFFFF;" d="M1212.1,1446.421c-7.629,5.083-13.541,14.503-18.981,21.779
							c-6.711,8.978-13.002,18.265-19.057,27.695c-11.865,18.479-23.294,37.712-32.723,57.564c-0.573,1.206,1.013,2.13,1.783,1.042
							c12.403-17.513,22.879-36.462,34.371-54.577c5.71-9,11.625-17.877,17.906-26.49c3.163-4.338,6.426-8.605,9.758-12.814
							c3.073-3.881,6.914-7.509,9.263-11.879C1215.179,1447.331,1213.583,1445.432,1212.1,1446.421L1212.1,1446.421z"/>
					</g>
				</g>
				<g>
					<g>
						<path style="fill:#FFFFFF;" d="M1185.113,1461.506c-8.107,8.016-14.149,18.245-20.215,27.821
							c-6.192,9.776-11.984,19.797-18.197,29.559c-1.313,2.063,1.889,3.87,3.248,1.899c6.414-9.301,12.308-18.9,18.252-28.502
							c6.108-9.867,13.124-19.147,19.171-29.034C1188.23,1461.846,1186.27,1460.363,1185.113,1461.506L1185.113,1461.506z"/>
					</g>
				</g>
				<g>
					<g>
						<path style="fill:#FFFFFF;" d="M1160.351,1476.865c-6.725,2.895-11.668,10.381-15.944,16.028
							c-5.292,6.989-9.97,14.371-14.496,21.872c-9.06,15.016-17.811,30.231-27.75,44.695c-0.784,1.141,0.977,2.482,1.911,1.475
							c11.55-12.449,19.713-27.395,28.337-41.904c4.344-7.308,8.775-14.59,13.56-21.62c4.553-6.688,11.375-12.797,14.836-20.093
							C1160.955,1477.004,1160.657,1476.733,1160.351,1476.865L1160.351,1476.865z"/>
					</g>
				</g>
				<g>
					<g>
						<path style="fill:#FFFFFF;" d="M1134.417,1487.635c-6.828,5.445-11.011,14.242-15.384,21.635
							c-4.849,8.2-9.631,16.392-15.197,24.137c-1.598,2.224,2.023,4.227,3.63,2.122c5.776-7.568,10.997-15.568,15.892-23.731
							c4.426-7.382,9.936-15.112,12.229-23.482C1135.788,1487.587,1134.933,1487.223,1134.417,1487.635L1134.417,1487.635z"/>
					</g>
				</g>
				<g>
					<g>
						<path style="fill:#FFFFFF;" d="M1105.156,1503.488c-9.039,9.799-14.607,23.013-20.985,34.597
							c-6.977,12.671-14.142,25.238-22.19,37.266c-0.716,1.071,0.936,2.362,1.796,1.385c9.491-10.784,16.961-23.084,23.822-35.659
							c6.519-11.947,14.096-24.084,18.729-36.908C1106.567,1503.507,1105.616,1502.989,1105.156,1503.488L1105.156,1503.488z"/>
					</g>
				</g>
				<g>
					<g>
						<path style="fill:#FFFFFF;" d="M1079.258,1516.614c-7.826,6.649-12.488,16.987-17.413,25.815
							c-5.221,9.359-10.309,18.8-15.691,28.067c-0.726,1.25,1.105,2.268,1.911,1.117c6.16-8.802,11.639-18.001,17.244-27.159
							c5.325-8.701,12.14-17.202,15.798-26.763C1081.539,1516.561,1080.01,1515.974,1079.258,1516.614L1079.258,1516.614z"/>
					</g>
				</g>
				<g>
					<g>
						<path style="fill:#FFFFFF;" d="M1058.846,1523.403c-6.997,6.455-11.074,15.481-15.437,23.793
							c-4.644,8.851-8.907,17.908-12.885,27.077c-0.343,0.791,0.683,1.86,1.332,1.028c5.858-7.513,10.217-16.255,14.536-24.7
							c4.492-8.782,9.279-17.403,13.786-26.171C1060.617,1523.577,1059.567,1522.738,1058.846,1523.403L1058.846,1523.403z"/>
					</g>
				</g>
				<g>
					<g>
						<path style="fill:#FFFFFF;" d="M1037.265,1532.498c-5.099,4.947-8.269,11.537-11.395,17.813
							c-3.361,6.748-6.769,13.499-9.942,20.333c-0.368,0.793,0.589,1.683,1.274,0.983c10.115-10.341,12.031-26.727,21.575-37.617
							C1039.679,1532.982,1038.264,1531.529,1037.265,1532.498L1037.265,1532.498z"/>
					</g>
				</g>
				<g>
					<g>
						<path style="fill:#FFFFFF;" d="M1015.929,1541.78c-5.895,8.666-9.388,18.619-14.537,27.695
							c-0.381,0.672,0.557,1.461,1.1,0.849c6.888-7.762,10.267-18.564,14.838-27.725
							C1017.798,1541.661,1016.517,1540.915,1015.929,1541.78L1015.929,1541.78z"/>
					</g>
				</g>
				<g>
					<g>
						<path style="fill:#FFFFFF;" d="M1366.531,1374.726c-1.057,23.884-12.011,46.24-24.428,66.199
							c-6.22,9.999-13.099,19.556-20.15,28.98c-6.676,8.922-14.194,17.71-19.551,27.514c-0.496,0.909,0.691,1.869,1.448,1.117
							c8.026-7.972,14.824-17.543,21.528-26.629c7.466-10.12,14.652-20.481,21.078-31.298c11.91-20.051,20.827-42.223,20.223-65.882
							C1366.676,1374.631,1366.535,1374.631,1366.531,1374.726L1366.531,1374.726z"/>
					</g>
				</g>
				<g>
					<g>
						<path style="fill:#FFFFFF;" d="M1361.252,1424.44c-7.21,14.804-14.415,29.505-23.396,43.34
							c-9.268,14.277-20.986,26.045-31.859,38.996c-0.84,1.001,0.225,2.685,1.475,1.911c14.178-8.771,25.19-23.031,34.219-36.792
							c9.386-14.305,16.816-30.306,20.572-47.03C1362.394,1424.285,1361.54,1423.85,1361.252,1424.44L1361.252,1424.44z"/>
					</g>
				</g>
				<g>
					<g>
						<path style="fill:#FFFFFF;" d="M1339.095,1493.546c-16.377,16.088-36.205,27.401-55.912,38.848
							c-1.141,0.663-0.14,2.206,1.005,1.719c20.191-8.582,45.833-18.699,56.412-39.405
							C1341.086,1493.759,1339.897,1492.758,1339.095,1493.546L1339.095,1493.546z"/>
					</g>
				</g>
				<g>
					<g>
						<path style="fill:#FFFFFF;" d="M1234.736,1563.119c6.396,1.548,13.637-1.06,19.628-3.224
							c6.631-2.395,13.096-5.405,19.365-8.616c13.406-6.867,27.572-14.399,39.535-23.584c0.505-0.388,0.25-1.419-0.483-1.146
							c-13.277,4.947-24.955,14.164-37.414,20.838c-6.785,3.634-13.711,6.882-21.053,9.233c-6.416,2.054-13.631,2.536-19.726,5.353
							C1234.091,1562.202,1234.239,1562.999,1234.736,1563.119L1234.736,1563.119z"/>
					</g>
				</g>
				<g>
					<g>
						<path style="fill:#FFFFFF;" d="M1210.516,1583.541c15.189-0.978,31.262-7.508,44.807-14.148
							c7.41-3.632,14.681-7.543,21.841-11.643c3.521-2.016,7.032-4.051,10.552-6.07c3.421-1.962,7.509-3.712,10.14-6.702
							c0.743-0.845,0.005-1.95-1.041-1.787c-6.898,1.072-14.105,6.863-20.141,10.248c-6.93,3.887-13.83,7.839-20.87,11.525
							c-7.392,3.87-14.796,7.901-22.554,10.99c-7.462,2.97-15.098,4.87-22.813,7.008
							C1210.126,1583.048,1210.176,1583.563,1210.516,1583.541L1210.516,1583.541z"/>
					</g>
				</g>
				<g>
					<g>
						<path style="fill:#FFFFFF;" d="M1176.234,1597.152c11.46,3.488,25.58,0.632,37.08-1.696
							c6.507-1.317,12.939-2.985,19.295-4.902c5.427-1.637,11.793-3.061,16.176-6.839c0.451-0.389,0.074-1.127-0.469-1.133
							c-5.695-0.069-11.35,2.65-16.726,4.274c-6.053,1.828-12.177,3.429-18.369,4.715c-6.285,1.305-12.656,2.299-19.043,2.936
							c-6,0.599-12.031,0.389-17.944,1.649C1175.715,1596.267,1175.771,1597.011,1176.234,1597.152L1176.234,1597.152z"/>
					</g>
				</g>
				<g>
					<g>
						<path style="fill:#FFFFFF;" d="M1153.032,1607.92c5.751,4.325,15.551,4.527,22.471,4.626
							c6.629,0.095,16.947,0.327,22.227-4.287c0.616-0.538,0.086-1.471-0.626-1.511c-3.123-0.174-6.247,0.943-9.32,1.468
							c-4.318,0.737-8.709,0.983-13.085,0.917c-7.042-0.106-14.539-2.429-21.499-1.831
							C1152.857,1607.331,1152.767,1607.72,1153.032,1607.92L1153.032,1607.92z"/>
					</g>
				</g>
				<g>
					<g>
						<path style="fill:#FFFFFF;" d="M1132.29,1615.13c6.2,6.124,15.69,5.826,23.658,4.584c1.262-0.197,0.979-2.366-0.304-2.246
							c-7.965,0.745-15.436-0.855-23.103-2.77C1132.295,1614.637,1132.103,1614.945,1132.29,1615.13L1132.29,1615.13z"/>
					</g>
				</g>
			</g>
			<g>
				<g>
					<g>
						<path style="fill:#FFFFFF;" d="M963.117,1188.735c-36.159,35.414-51.331,89.11-53.525,138.377
							c-0.053,1.191,1.769,1.177,1.844,0c1.579-24.918,6.17-49.782,14.859-73.236c8.821-23.809,22.225-44.527,36.996-65.007
							C963.366,1188.765,963.204,1188.65,963.117,1188.735L963.117,1188.735z"/>
					</g>
				</g>
				<g>
					<g>
						<path style="fill:#FFFFFF;" d="M982.858,1175.485c-16.737,10.197-23.187,33.217-27.442,51.08
							c-4.873,20.458-6.92,41.448-8.876,62.346c-0.088,0.942,1.519,1.172,1.666,0.226c3.061-19.735,5.405-39.564,9.923-59.047
							c4.517-19.476,11.182-39.319,24.953-54.315C983.219,1175.625,983.043,1175.372,982.858,1175.485L982.858,1175.485z"/>
					</g>
				</g>
				<g>
					<g>
						<path style="fill:#FFFFFF;" d="M1013.009,1151.081c-5.913,2.337-9.355,8.021-12.266,13.394
							c-4.042,7.461-6.937,15.546-9.438,23.633c-4.836,15.636-7.558,31.796-10.839,47.798c-0.312,1.523,1.906,2.165,2.347,0.647
							c4.195-14.433,7.119-29.196,11.277-43.647c2.296-7.982,4.876-15.953,8.489-23.448c2.996-6.214,7.042-11.513,11.29-16.897
							C1014.343,1151.96,1013.934,1150.715,1013.009,1151.081L1013.009,1151.081z"/>
					</g>
				</g>
				<g>
					<g>
						<path style="fill:#FFFFFF;" d="M1049.834,1135.101c-4.246,0.952-7.409,5.401-9.893,8.692c-3.359,4.45-6.136,9.31-8.538,14.335
							c-5.339,11.171-8.792,23.246-11.634,35.262c-5.477,23.154-7.486,46.854-11.146,70.313c-0.136,0.869,1.136,1.269,1.351,0.373
							c5.261-21.913,8.122-44.354,13.327-66.294c2.84-11.968,6.203-23.854,11.178-35.13c2.138-4.846,4.54-9.58,7.473-13.999
							c2.642-3.981,7.235-7.6,9.088-11.982C1051.401,1135.824,1050.814,1134.881,1049.834,1135.101L1049.834,1135.101z"/>
					</g>
				</g>
				<g>
					<g>
						<path style="fill:#FFFFFF;" d="M1076.462,1127.154c-6.214,0.614-10.537,10.615-12.785,15.422
							c-4.382,9.373-7.286,19.389-9.856,29.386c-4.871,18.948-7.555,38.251-11.062,57.465c-0.185,1.016,1.249,1.442,1.565,0.431
							c5.429-17.358,8.235-35.586,12.583-53.234c2.4-9.738,5.126-19.452,8.829-28.785c1.551-3.908,3.326-7.776,5.589-11.328
							c1.738-2.727,4.594-4.932,6.06-7.748C1077.725,1128.111,1077.321,1127.069,1076.462,1127.154L1076.462,1127.154z"/>
					</g>
				</g>
				<g>
					<g>
						<path style="fill:#FFFFFF;" d="M1103.914,1122.065c-11.391,15.913-13.892,37.053-16.692,55.909
							c-0.211,1.421,1.76,2.052,2.205,0.608c5.601-18.185,6.469-38.64,17.544-54.73
							C1108.273,1121.96,1105.225,1120.234,1103.914,1122.065L1103.914,1122.065z"/>
					</g>
				</g>
				<g>
					<g>
						<path style="fill:#FFFFFF;" d="M1126.516,1122.004c4.015,13.87,6.876,27.824,8.452,42.185
							c1.523,13.872,1.54,27.819,2.035,41.747c0.064,1.802,2.516,1.701,2.729,0c3.458-27.685-0.218-58.718-10.585-84.658
							C1128.514,1119.691,1126.015,1120.273,1126.516,1122.004L1126.516,1122.004z"/>
					</g>
				</g>
				<g>
					<g>
						<path style="fill:#FFFFFF;" d="M1148.554,1121.846c16.846,34.211,29.545,70.397,26.946,109.113
							c-0.08,1.194,1.859,1.468,2.101,0.284c3.886-19.061,1.651-38.588-3.647-57.18c-5.324-18.684-13.253-36.874-24.699-52.626
							C1148.95,1121.017,1148.32,1121.371,1148.554,1121.846L1148.554,1121.846z"/>
					</g>
				</g>
				<g>
					<g>
						<path style="fill:#FFFFFF;" d="M1172.941,1124.554c4.327,11.412,10.049,22.256,14.39,33.694
							c4.505,11.869,8.257,24.014,11.3,36.338c6.037,24.453,9.339,49.476,11.152,74.574c0.096,1.325,1.977,1.332,2.065,0
							c1.669-25.235-1.894-50.658-8.152-75.089c-3.22-12.572-7.167-24.971-11.933-37.045c-4.478-11.346-9.469-23.542-16.936-33.268
							C1174.19,1122.927,1172.484,1123.349,1172.941,1124.554L1172.941,1124.554z"/>
					</g>
				</g>
				<g>
					<g>
						<path style="fill:#FFFFFF;" d="M1206.094,1137.437c7.258,5.607,13.152,11.402,17.714,19.481
							c5.022,8.894,8.225,18.725,10.648,28.609c5.177,21.121,6.744,42.734,8.299,64.353c0.683,9.506,0.814,19.415,2.517,28.803
							c0.249,1.37,2.117,0.873,2.246-0.304c2.186-19.986,0.413-41.17-1.92-61.048c-2.499-21.285-6.44-43.634-17.3-62.438
							c-4.729-8.189-11.723-17.126-21.039-20.22C1205.488,1134.086,1204.851,1136.477,1206.094,1137.437L1206.094,1137.437z"/>
					</g>
				</g>
				<g>
					<g>
						<path style="fill:#FFFFFF;" d="M1244.631,1156.006c1.454,4.235,5.539,8.024,8.135,11.602
							c3.436,4.735,6.533,9.712,9.404,14.807c6.647,11.798,12.374,24.182,17.178,36.837c4.642,12.228,8.62,24.77,11.481,37.538
							c1.291,5.761,2.412,11.591,3.236,17.438c0.701,4.977,0.594,10.345,1.718,15.221c0.462,2.005,3.369,1.855,3.912,0
							c1.403-4.797,0.769-10.687,0.298-15.616c-0.582-6.091-1.586-12.109-2.918-18.079c-3.006-13.477-7.25-26.66-12.436-39.451
							c-5.103-12.587-10.947-24.884-18.211-36.377c-3.227-5.106-6.697-10.063-10.487-14.768c-2.785-3.458-6.37-8.358-10.765-9.698
							C1244.865,1155.367,1244.522,1155.687,1244.631,1156.006L1244.631,1156.006z"/>
					</g>
				</g>
				<g>
					<g>
						<path style="fill:#FFFFFF;" d="M1286.471,1186.609c2.003,4.218,5.643,7.93,8.086,11.971c2.656,4.393,5.016,8.965,7.118,13.648
							c4.582,10.209,7.836,21.167,10.328,32.062c4.869,21.292,6.526,43.945,4.223,65.704c-0.183,1.731,2.691,2.113,3.042,0.412
							c4.665-22.589,2.94-45.856-2.776-68.144c-2.824-11.012-6.809-21.581-11.853-31.767c-2.476-5-5.246-9.862-8.37-14.487
							c-2.378-3.521-5.105-8.119-8.638-10.559C1286.87,1184.922,1286.141,1185.915,1286.471,1186.609L1286.471,1186.609z"/>
					</g>
				</g>
				<g>
					<g>
						<path style="fill:#FFFFFF;" d="M902.459,1272.958c-4.33,5.047-5.887,12.109-7.028,18.509
							c-1.492,8.366-1.931,16.899-2.003,25.384c-0.143,17.076,1.645,34.044,2.111,51.096c0.017,0.616,0.946,0.618,0.959,0
							c0.331-16.06-1.124-32.104-1.161-48.162c-0.02-8.628,0.274-17.319,1.614-25.856c1.137-7.242,3.562-13.853,5.877-20.755
							C902.897,1272.968,902.602,1272.791,902.459,1272.958L902.459,1272.958z"/>
					</g>
				</g>
				<g>
					<g>
						<path style="fill:#FFFFFF;" d="M952.15,1197.741c-4.949,7.476-7.486,16.09-9.757,24.697
							c-2.609,9.889-4.573,19.968-6.06,30.084c-2.777,18.895-5.16,38.36-5.484,57.472c-0.014,0.817,1.272,1.022,1.449,0.196
							c3.967-18.566,4.839-37.891,7.714-56.654c1.471-9.605,3.111-19.183,5.423-28.626c2.21-9.025,5.397-17.749,7.793-26.715
							C953.405,1197.533,952.514,1197.191,952.15,1197.741L952.15,1197.741z"/>
					</g>
				</g>
				<g>
					<g>
						<path style="fill:#FFFFFF;" d="M986.11,1169.914c-3.323,6.304-4.954,13.456-6.765,20.311
							c-1.984,7.505-3.771,15.064-5.201,22.694c-2.757,14.717-4.662,29.499-6.199,44.388c-0.059,0.574,0.916,0.711,1.014,0.137
							c2.506-14.592,5.17-29.194,8.311-43.664c1.581-7.282,3.161-14.567,4.999-21.789c1.806-7.099,4.408-14.123,5.526-21.368
							C987.942,1169.672,986.639,1168.91,986.11,1169.914L986.11,1169.914z"/>
					</g>
				</g>
				<g>
					<g>
						<path style="fill:#FFFFFF;" d="M1024.78,1148.76c-5.49,2.338-8.453,8.347-10.866,13.578
							c-3.27,7.087-5.466,14.683-7.401,22.225c-3.784,14.745-6.232,29.823-8.679,44.835c-0.198,1.212,1.42,1.683,1.849,0.51
							c4.886-13.361,6.713-27.928,10.078-41.722c1.791-7.341,3.831-14.665,6.661-21.681c2.444-6.059,5.904-11.347,9.216-16.887
							C1025.991,1149.027,1025.315,1148.532,1024.78,1148.76L1024.78,1148.76z"/>
					</g>
				</g>
				<g>
					<g>
						<path style="fill:#FFFFFF;" d="M1060.222,1133.056c-6.591,5.993-9.679,15.157-12.412,23.42
							c-3.197,9.666-5.116,19.659-7.688,29.494c-0.267,1.02,1.225,1.41,1.565,0.431c3.078-8.874,5.619-17.913,8.373-26.89
							c2.783-9.073,6.746-17.326,11.147-25.695C1061.54,1133.182,1060.754,1132.572,1060.222,1133.056L1060.222,1133.056z"/>
					</g>
				</g>
				<g>
					<g>
						<path style="fill:#FFFFFF;" d="M1093.12,1123.483c-4.854,2.088-7.721,7.827-9.804,12.364
							c-2.872,6.254-4.774,12.913-6.379,19.589c-3.157,13.136-4.645,26.631-8.018,39.709c-0.27,1.048,1.351,1.834,1.82,0.767
							c4.996-11.376,6.432-24.2,9.045-36.251c1.447-6.672,3.097-13.367,5.625-19.723c2.265-5.696,5.877-10.033,8.972-15.195
							C1094.9,1123.879,1093.906,1123.145,1093.12,1123.483L1093.12,1123.483z"/>
					</g>
				</g>
				<g>
					<g>
						<path style="fill:#FFFFFF;" d="M1116.595,1121.646c-0.441,25.205-1.303,49.99-3.912,75.076
							c-0.08,0.769,1.092,0.864,1.304,0.176c7.421-24.059,4.507-50.475,4.01-75.252
							C1117.978,1120.745,1116.611,1120.743,1116.595,1121.646L1116.595,1121.646z"/>
					</g>
				</g>
				<g>
					<g>
						<path style="fill:#FFFFFF;" d="M1135.527,1121.705c0.993,7.264,4.016,14.159,6.218,21.112
							c2.225,7.024,4.133,14.159,5.795,21.337c3.523,15.216,3.92,30.289,5.197,45.742c0.126,1.528,2.424,2.058,2.825,0.382
							c3.615-15.088,1.111-31.881-2.522-46.723c-1.899-7.758-4.506-15.292-7.423-22.722c-2.621-6.677-5.224-13.674-9.72-19.344
							C1135.741,1121.293,1135.502,1121.519,1135.527,1121.705L1135.527,1121.705z"/>
					</g>
				</g>
				<g>
					<g>
						<path style="fill:#FFFFFF;" d="M1159.839,1123.502c5.41,10.416,11.221,20.61,15.996,31.349
							c4.853,10.915,8.01,22.416,12.657,33.377c0.558,1.316,2.781,0.641,2.68-0.726c-0.848-11.48-5.949-22.897-10.792-33.205
							c-5.23-11.131-11.175-22.113-18.693-31.874C1160.866,1121.359,1159.186,1122.244,1159.839,1123.502L1159.839,1123.502z"/>
					</g>
				</g>
				<g>
					<g>
						<path style="fill:#FFFFFF;" d="M1189.192,1129.867c3.615,6.658,7.95,12.825,11.26,19.686
							c3.883,8.047,7.209,16.437,10.097,24.89c2.737,8.01,5.061,16.152,7.148,24.354c1.873,7.362,3.173,14.984,5.674,22.161
							c0.697,2,4.056,1.843,3.912-0.529c-0.474-7.778-2.523-15.522-4.39-23.064c-2.21-8.929-4.76-17.788-7.785-26.476
							c-2.861-8.217-6.14-16.223-10.434-23.803c-3.682-6.498-8.263-13.883-14.624-18.076
							C1189.503,1128.648,1188.908,1129.343,1189.192,1129.867L1189.192,1129.867z"/>
					</g>
				</g>
				<g>
					<g>
						<path style="fill:#FFFFFF;" d="M1229.26,1144.892c16.083,12.118,24.004,34.193,30.172,52.57
							c6.259,18.647,11.289,38.18,14.562,57.59c0.263,1.562,2.814,1.191,2.753-0.373c-0.816-20.958-7.004-41.849-14.288-61.387
							c-3.968-10.644-8.48-21.219-14.572-30.838c-4.526-7.146-10.105-14.979-17.994-18.645
							C1229.151,1143.464,1228.618,1144.408,1229.26,1144.892L1229.26,1144.892z"/>
					</g>
				</g>
				<g>
					<g>
						<path style="fill:#FFFFFF;" d="M1270.024,1170.477c2.687,6.519,6.267,12.64,9.213,19.047
							c3.974,8.642,7.603,17.466,11.08,26.318c3.298,8.396,6.2,16.936,8.402,25.688c1.893,7.525,2.658,15.186,4.291,22.727
							c0.295,1.364,2.265,1.232,2.631,0c2.079-6.977,0.358-15.315-1.202-22.225c-2.127-9.418-5.537-18.631-9.193-27.549
							c-3.502-8.544-7.57-16.877-12.161-24.885c-3.806-6.638-7.369-13.703-12.445-19.48
							C1270.408,1169.853,1269.883,1170.134,1270.024,1170.477L1270.024,1170.477z"/>
					</g>
				</g>
				<g>
					<g>
						<path style="fill:#FFFFFF;" d="M1312.712,1213.587c0.923,1.134,1.678,3.983,2.314,5.418c1.324,2.99,2.498,6.017,3.546,9.116
							c2.798,8.277,5.158,16.71,7.333,25.17c3.733,14.523,6.099,29.434,10.251,43.833c0.372,1.291,2.138,0.947,2.246-0.304
							c0.547-6.363-0.938-13.063-2.281-19.251c-2.05-9.447-4.449-18.832-7.053-28.141c-2.412-8.623-4.97-17.243-8.367-25.537
							c-1.73-4.224-3.311-9.121-7.665-10.858C1312.692,1212.896,1312.53,1213.363,1312.712,1213.587L1312.712,1213.587z"/>
					</g>
				</g>
			</g>
			<g>
				<path style="fill:#222323;" d="M1567.435,1137.367c-19.568-36.692-168.393,22.481-265.599,61.322l13.972,18.445
					c32.341-11.197,139.147-40.255,148.255-26.714c9.113,13.54-124.24,142.507-290.127,235.519
					c-137.704,77.205-352.781,132.759-362.753,119.899c-9.967-12.849,48.427-63.106,87.31-92.295l-8.163-24.92
					c-82.354,57.073-210.381,156.753-192.195,199.915c18.17,43.162,286.401-57.525,487.994-166.014
					C1482.331,1303.117,1586.998,1174.064,1567.435,1137.367z"/>
				<g>
					<path style="fill:#FFFFFF;" d="M1570.492,1135.58c-5.084-9.178-15.858-12.072-25.599-12.971
						c-15.34-1.416-31.152,1.397-46.114,4.529c-43.368,9.078-85.456,24.621-126.801,40.273
						c-23.802,9.011-47.449,18.422-71.082,27.864c-1.864,0.745-3.642,3.186-2.116,5.201c4.657,6.148,9.315,12.296,13.972,18.445
						c0.91,1.202,2.407,2.176,3.998,1.627c29.359-10.122,59.824-17.944,90.223-24.202c14.078-2.898,28.588-5.854,43.021-5.909
						c3.675-0.014,7.617,0.287,10.636,1.558c1.253,0.527-0.244,0.283,0.314-0.327c-0.571,0.624,0.14,0.724-0.332,1.995
						c-2.02,5.435-7.373,12.143-11.642,17.255c-8.262,9.896-17.304,19.147-26.515,28.155
						c-28.073,27.455-58.322,52.734-89.349,76.766c-76.179,59.004-158.304,110.933-247.028,148.871
						c-40.432,17.289-81.824,32.389-123.716,45.737c-33.47,10.664-67.358,20.431-101.738,27.721
						c-10.763,2.282-21.635,4.443-32.597,5.508c-3.461,0.336-6.974,0.61-10.453,0.427c-1.667-0.088-1.548-0.056-2.742-0.323
						c-1.335-0.298-0.998-0.589-0.835-0.125c-0.021-0.06-0.478-0.869-0.394-2.001c0.18-2.427,1.651-4.929,2.841-6.965
						c3.725-6.378,8.742-11.996,13.761-17.372c14.153-15.159,30.004-28.78,46.049-41.881c7.884-6.438,15.894-12.72,24.028-18.838
						c1.222-0.919,2.151-2.397,1.627-3.998c-2.721-8.307-5.442-16.614-8.163-24.92c-0.66-2.015-3.225-3.486-5.201-2.116
						c-44.773,31.053-88.776,63.858-129.028,100.653c-17.431,15.934-34.437,32.742-48.518,51.77
						c-8.897,12.022-19.079,27.481-18.093,43.184c1.594,25.389,34.158,22.011,51.965,19.73c42.879-5.493,84.88-19.517,125.522-33.72
						c56.286-19.67,111.482-42.509,165.834-66.986c59.18-26.651,117.338-55.541,174.185-86.865
						c58.196-32.067,115.268-66.358,169.923-104.179c39.346-27.228,77.691-56.26,112.964-88.646
						c22.968-21.089,45.412-43.79,62.731-69.868c8.752-13.177,19.148-30.486,16.943-47.073
						C1572.6,1140.752,1571.813,1138.102,1570.492,1135.58c-2.115-4.038-8.228-0.463-6.114,3.574
						c0.594,1.134,1.585,4.662,1.687,5.859c0.262,3.098,0.003,5.917-0.444,8.3c-1.494,7.952-4.859,15.295-8.736,22.328
						c-12.938,23.473-31.621,43.795-50.498,62.586c-30.467,30.329-64.126,57.428-98.755,82.83
						c-48.386,35.494-99.14,67.721-150.966,97.931c-56.534,32.955-114.437,63.51-173.5,91.679
						c-54.732,26.103-110.371,50.407-166.979,72.161c-45.153,17.352-91.129,33.753-138.301,44.754
						c-15.525,3.621-31.376,6.829-47.344,7.527c-8.363,0.366-20.044,0.603-26.472-4.511c-2.437-1.939-3.791-5.409-4.085-9.427
						c-0.472-6.452,1.662-12.977,4.336-18.76c8.302-17.954,22.134-33.322,35.714-47.44c36.771-38.228,79.384-71.023,122.216-102.111
						c9.878-7.169,19.837-14.226,29.866-21.182c-1.734-0.705-3.467-1.411-5.201-2.116c2.721,8.307,5.442,16.613,8.163,24.92
						c0.542-1.333,1.085-2.665,1.627-3.998c-17.651,13.276-34.866,27.196-51.221,42.046c-12.816,11.636-27.611,24.424-35.91,39.921
						c-3.347,6.25-5.322,16.114,3.627,18.213c7.233,1.697,15.562,0.131,22.766-0.87c30.615-4.252,60.816-12.53,90.467-21.053
						c42.281-12.153,84.019-26.301,124.999-42.298c42.511-16.595,84.444-35.135,124.289-57.449
						c47.346-26.515,92.862-56.338,136.509-88.565c35.292-26.058,69.593-53.651,101.749-83.517
						c11.523-10.702,22.819-21.701,33.364-33.376c6.373-7.056,13.026-14.455,17.711-22.79c2.664-4.74,5.087-11.039-0.557-14.682
						c-8.258-5.331-22.225-2.55-31.211-1.395c-34.274,4.407-68.244,13.592-101.271,23.565c-5.746,1.735-11.476,3.528-17.15,5.485
						c1.333,0.542,2.666,1.085,3.998,1.627c-4.657-6.148-9.315-12.296-13.972-18.445c-0.705,1.734-1.41,3.467-2.116,5.201
						c40.984-16.376,82.023-32.716,123.827-46.907c19.761-6.708,39.708-12.982,59.972-18c15.855-3.926,32.158-7.432,48.549-7.797
						c9.63-0.214,23.883,0.061,29.252,9.754C1566.586,1143.141,1572.703,1139.573,1570.492,1135.58z"/>
				</g>
			</g>
			<g>
				<g>
					<g>
						<path style="fill:#FFFFFF;" d="M821.623,1493.983c-15.484,11.736-29.567,25.388-42.712,39.705
							c-14.041,15.293-28.298,32.249-35.887,51.827c-3.21,8.28-5.317,17.558-2.021,26.106c0.342,0.888,1.582,0.549,1.422-0.392
							c-3.036-17.901,6.856-35.044,16.767-49.121c12.369-17.569,27.483-33.247,42.932-48.113c6.713-6.46,13.406-12.821,19.901-19.49
							C822.278,1494.245,821.934,1493.748,821.623,1493.983L821.623,1493.983z"/>
					</g>
				</g>
				<g>
					<g>
						<path style="fill:#FFFFFF;" d="M775.708,1575.831c-1.006,14.34,17.349,16.185,27.741,16.172
							c23.392-0.028,47.211-7.048,69.466-13.549c56.709-16.563,111.667-39.426,166.099-62.214
							c10.519-4.403,20.961-9.019,31.371-13.673c5.554-2.483,11.272-5.715,17.078-7.552c0.947-0.299,0.542-1.795-0.412-1.493
							c-13.378,4.231-26.338,9.659-39.373,14.884c-24.748,9.92-49.246,20.439-74.066,30.187
							c-27.92,10.965-56.053,21.462-84.612,30.655c-24.06,7.744-48.726,15.474-73.899,18.575
							c-12.215,1.504-35.89,4.72-39.177-12.021C775.9,1575.672,775.716,1575.713,775.708,1575.831L775.708,1575.831z"/>
					</g>
				</g>
				<g>
					<g>
						<path style="fill:#FFFFFF;" d="M1394.244,1175.558c12.544,0.276,24.556-3.186,36.673-6.177
							c14.123-3.486,28.67-6.651,43.229-7.418c15.129-0.797,38.701,2.71,32.877,23.109c-4.77,16.708-19.281,31.043-31.142,43.009
							c-15.499,15.634-32.286,30.006-49.344,43.901c-12.898,10.507-27.084,20.031-39.005,31.668
							c-0.873,0.852,0.301,2.492,1.341,1.738c30.928-22.436,61.404-46.727,88.253-73.953c12.381-12.555,27.138-27.405,32.331-44.785
							c1.637-5.479,1.951-11.624-1.231-16.625c-4.279-6.722-12.773-9.172-20.244-9.955c-15.989-1.676-32.666,2.249-48.182,5.673
							c-15.063,3.324-30.352,7.255-45.593,9.525C1394.035,1175.294,1394.083,1175.555,1394.244,1175.558L1394.244,1175.558z"/>
					</g>
				</g>
				<g>
					<g>
						<path style="fill:#FFFFFF;" d="M1514.032,1149.29c7.428,3.238,11.51,10.379,14.874,17.388c0.162,0.337,0.728,0.1,0.607-0.256
							c-2.627-7.704-7.057-14.937-14.811-18.279C1513.927,1147.809,1513.248,1148.948,1514.032,1149.29L1514.032,1149.29z"/>
					</g>
				</g>
				<g>
					<g>
						<path style="fill:#FFFFFF;" d="M1275.749,1375.87c53.811-34.602,100.582-78.734,152.884-115.448
							c0.574-0.403,0.05-1.343-0.558-0.955c-53.982,34.39-100.158,79.385-152.623,115.893
							C1275.143,1375.575,1275.425,1376.078,1275.749,1375.87L1275.749,1375.87z"/>
					</g>
				</g>
				<g>
					<g>
						<path style="fill:#FFFFFF;" d="M1330.565,1359.465c26.649-20.531,54.258-39.774,81.072-60.087
							c26.5-20.075,53.132-40.446,76.5-64.178c0.607-0.616-0.298-1.492-0.939-0.939c-25.763,22.25-52.038,43.757-79.198,64.286
							c-26.199,19.803-52.356,39.683-77.659,60.628C1330.182,1359.307,1330.399,1359.593,1330.565,1359.465L1330.565,1359.465z"/>
					</g>
				</g>
			</g>
		</g>
		<g>
			<g>
				<g>
					<g>
						<path style="fill:#FFFFFF;" d="M860.073,510.981c-10.43,13.529-17.527,30.43-24.13,46.104
							c-6.898,16.374-12.652,33.205-17.43,50.315c-10.064,36.041-15.851,73.259-18.326,110.573
							c-5.02,75.699,3.367,153.102,25.037,225.831c11.019,36.983,25.028,74.866,47.174,106.743c1.078,1.551,3.404,0.221,2.543-1.487
							c-15.505-30.765-29.969-61.768-40.596-94.605c-11.451-35.383-19.447-71.902-24.341-108.758
							c-9.822-73.958-7.999-150.629,9.661-223.294c4.724-19.436,10.663-38.58,17.95-57.211c3.545-9.064,7.436-17.991,11.69-26.745
							c4.257-8.761,9.297-17.121,13.312-25.979C863.411,510.715,861.225,509.487,860.073,510.981L860.073,510.981z"/>
					</g>
				</g>
				<g>
					<g>
						<path style="fill:#FFFFFF;" d="M884.545,517.336c-5.001,39.593-2.979,80.44,3.05,119.801
							c5.833,38.083,16.265,75.344,30.489,111.133c28.642,72.067,72.363,137.401,124.768,194.327
							c29.752,32.319,62.094,63.643,98.145,88.892c1.968,1.378,4.373-1.739,2.573-3.335c-29.116-25.817-58.681-50.89-85.627-79.043
							c-26.769-27.968-51.511-57.959-73.434-89.88c-43.165-62.85-75.036-133.499-89.077-208.654
							c-8.26-44.21-9.067-88.468-6.503-133.241C889.094,514.458,884.889,514.617,884.545,517.336L884.545,517.336z"/>
					</g>
				</g>
				<g>
					<g>
						<path style="fill:#FFFFFF;" d="M857.053,530.233c-1.24,19.772-4.246,39.23-8.499,58.569
							c-4.179,19.005-9.044,37.872-12.551,57.02c-6.459,35.258-5.275,70.796-0.502,106.197
							c9.117,67.627,31.997,134.25,66.81,192.975c18.943,31.954,41.358,63.315,69.221,88.102c0.726,0.646,1.714-0.34,1.066-1.066
							c-22.229-24.846-43.05-50.579-60.493-79.059c-18.056-29.48-33.176-60.778-45.08-93.23
							c-11.672-31.82-20.359-64.769-25.608-98.26c-5.441-34.713-8.016-70.711-2.529-105.562
							c3.358-21.326,8.858-42.224,13.518-63.284c4.514-20.401,8.523-41.446,7.182-62.402
							C859.483,528.605,857.155,528.601,857.053,530.233L857.053,530.233z"/>
					</g>
				</g>
				<g>
					<g>
						<path style="fill:#FFFFFF;" d="M873.83,537.68c-7.03,27.454-8.018,57.185-8.606,85.395
							c-0.616,29.58,0.803,59.217,4.456,88.581c7.229,58.109,23.149,115.359,51.015,167.066
							c7.807,14.487,16.518,28.476,26.291,41.721c9.473,12.838,19.841,25.814,31.962,36.255c0.916,0.789,2.047-0.387,1.308-1.308
							c-9.146-11.403-18.776-22.301-27.388-34.148c-8.36-11.499-16.081-23.5-23.116-35.853
							c-14.359-25.21-25.79-52.017-34.643-79.631c-17.827-55.612-26.014-113.888-26.152-172.227
							c-0.038-16.075,0.533-32.151,1.703-48.183c1.156-15.855,3.372-31.66,4.179-47.532
							C874.869,537.235,873.973,537.122,873.83,537.68L873.83,537.68z"/>
					</g>
				</g>
				<g>
					<g>
						<path style="fill:#FFFFFF;" d="M824.787,1165.33c-3.044-3.567-7.961-5.269-11.256-8.808c-3.134-3.365-5.185-7.555-6.311-11.99
							c-2.463-9.703-0.69-20.169,2.532-29.474c7.109-20.529,23.725-41.11,45.601-46.47c5.796-1.42,11.872-1.519,17.686-0.145
							c7.036,1.662,12.896,5.456,19.307,8.562c2.012,0.975,3.704-1.317,2.324-3.012c-8.214-10.095-23.142-13.969-35.628-12.389
							c-12.314,1.559-23.363,8.167-32.207,16.656c-16.617,15.952-30.094,42.299-24.981,65.849
							c1.207,5.559,3.701,10.817,7.494,15.079c3.502,3.935,9.465,8.668,15.016,7.745
							C825.137,1166.804,825.206,1165.82,824.787,1165.33L824.787,1165.33z"/>
					</g>
				</g>
				<g>
					<g>
						<path style="fill:#FFFFFF;" d="M885.763,1111.922c0.691-3.28-0.113-6.656,0.375-9.994c0.464-3.17,1.751-6.137,3.647-8.715
							c3.891-5.292,10.153-8.614,16.282-10.603c6.998-2.271,14.415-3.011,21.741-2.474c7.329,0.537,13.971,3.291,21.092,4.521
							c1.905,0.329,3.05-1.655,1.833-3.149c-5.14-6.309-15.324-8.033-22.925-8.518c-8.903-0.569-18.153,0.681-26.454,3.995
							c-7.042,2.812-13.882,7.417-17.613,14.215c-3.175,5.785-4.959,15.949,0.019,21.25
							C884.355,1113.084,885.578,1112.8,885.763,1111.922L885.763,1111.922z"/>
					</g>
				</g>
				<g>
					<g>
						<path style="fill:#FFFFFF;" d="M918.416,1076.851c-4.617-9.425-4.284-19.08,2.02-27.603
							c5.972-8.074,14.558-11.679,23.385-15.685c1.497-0.679,0.608-2.796-0.778-2.872c-11.473-0.631-22.767,8.511-28.586,17.713
							c-6.173,9.762-6.858,21.884,1.216,30.563C917.088,1080.489,919.252,1078.558,918.416,1076.851L918.416,1076.851z"/>
					</g>
				</g>
				<g>
					<g>
						<path style="fill:#FFFFFF;" d="M968.619,1066.251c0.131-3.522-0.621-6.864,0.616-10.289c1.026-2.84,2.961-5.251,5.289-7.145
							c5.715-4.648,13.581-6.561,20.812-6.696c7.966-0.149,16.103,1.847,22.642,6.522c3.359,2.402,6.143,5.517,8.174,9.109
							c2.374,4.197,2.679,9.404,5.469,13.263c1.251,1.731,3.627,1.427,4.382-0.573c2.83-7.5-3.647-17.653-8.698-22.895
							c-5.432-5.639-12.776-9.312-20.403-10.885c-13.176-2.717-30.067-0.358-39.055,10.661c-4.229,5.185-6.841,13.895-2.865,19.915
							C966.048,1068.852,968.545,1068.23,968.619,1066.251L968.619,1066.251z"/>
					</g>
				</g>
				<g>
					<g>
						<path style="fill:#FFFFFF;" d="M1195.912,1017.13c-1.844-1.123-2.652-2.934-5.019-3.78c-2.643-0.945-5.808-1.094-8.591-1.186
							c-5.599-0.185-11.274,0.65-16.64,2.229c-11.13,3.274-21.327,9.741-29.428,18.005c-7.873,8.032-14.249,18.156-16.731,29.213
							c-2.024,9.012-2.614,25.61,6.61,30.845c1.04,0.59,2.279-0.164,2.319-1.331c0.167-4.855-2.337-9.171-3.167-14.009
							c-0.85-4.956-0.663-10.058,0.438-14.96c2.292-10.211,7.99-19.301,15.365-26.621c7.535-7.479,16.919-13.302,27.172-16.186
							c4.95-1.392,10.06-2.059,15.202-1.804c2.28,0.113,4.509,0.646,6.78,0.765c1.798,0.094,3.922-0.823,5.534-0.607
							C1196.077,1017.748,1196.15,1017.275,1195.912,1017.13L1195.912,1017.13z"/>
					</g>
				</g>
				<g>
					<g>
						<path style="fill:#FFFFFF;" d="M1127.194,1055.5c-9.56-16.597-30.592-17.032-44.555-6.125
							c-15.244,11.907-24.507,31.991-27.705,50.713c-1.412,8.264-3.721,23.319,3.345,29.78c0.805,0.736,2.323,0.511,2.576-0.68
							c1.008-4.737-0.373-10.081-0.437-14.896c-0.072-5.458,0.574-10.895,1.745-16.221c2.414-10.98,6.852-21.573,13.219-30.853
							c5.317-7.749,12.697-15.469,22.021-18.069c10.747-2.997,18.522,3.544,26.839,9.304
							C1126.08,1059.725,1128.217,1057.274,1127.194,1055.5L1127.194,1055.5z"/>
					</g>
				</g>
				<g>
					<g>
						<path style="fill:#FFFFFF;" d="M1011.202,1092.448c3.704-4.8,6.922-9.734,11.74-13.546c4.505-3.565,9.749-6.283,15.267-7.877
							c5.347-1.545,11.05-2.002,16.525-0.864c3.002,0.624,5.73,1.73,8.421,3.181c2.13,1.148,3.879,2.245,6.379,1.654
							c0.701-0.166,1.248-0.904,1.232-1.618c-0.131-5.954-9.598-8.553-14.301-9.495c-6.599-1.322-13.494-0.861-19.926,1.083
							c-11.673,3.528-25.79,13.505-28.028,26.348C1008.213,1093.017,1010.18,1093.772,1011.202,1092.448L1011.202,1092.448z"/>
					</g>
				</g>
				<g>
					<g>
						<path style="fill:#FFFFFF;" d="M1113.867,1113.853c2.8-7.005,7.908-15.017,14.252-19.248c7.794-5.198,15.77-4.322,23.51,0.385
							c3.935,2.393,7.047-3.418,3.526-6.033c-8.693-6.459-20.253-6.654-29.31-0.813c-4.208,2.714-7.712,6.387-10.429,10.58
							c-3.128,4.828-3.862,9.276-3.904,14.811C1111.501,1114.976,1113.391,1115.044,1113.867,1113.853L1113.867,1113.853z"/>
					</g>
				</g>
				<g>
					<g>
						<path style="fill:#FFFFFF;" d="M1225.597,1000.66c-11.641-8.088-24.478,4.719-29.873,14.35
							c-4.97,8.873-10.797,29.789,2.281,34.919c1.74,0.683,3.765-1.396,3.118-3.118c-1.639-4.362-3.948-7.862-3.977-12.685
							c-0.031-5.286,1.639-10.63,4.07-15.283c4.465-8.547,12.718-16.931,23.193-15.367
							C1226.116,1003.732,1227.097,1001.702,1225.597,1000.66L1225.597,1000.66z"/>
					</g>
				</g>
				<g>
					<g>
						<path style="fill:#FFFFFF;" d="M865.203,1162.165c-12.758-14.208-35.489-8.936-49.446,0.196
							c-16.569,10.842-29.517,28.688-34.45,47.89c-1.348,5.245-2.134,10.766-1.948,16.189c0.142,4.116,0.719,10.969,4.101,13.792
							c0.917,0.766,2.489,0.581,2.805-0.741c1.049-4.386-0.848-10.006-0.835-14.619c0.016-5.511,1.015-10.948,2.64-16.203
							c3.449-11.152,9.762-21.486,17.711-30c7.466-7.996,16.749-14.899,27.41-17.864c10.888-3.028,19.703-0.05,29.563,4.533
							C864.806,1166.292,866.795,1163.938,865.203,1162.165L865.203,1162.165z"/>
					</g>
				</g>
				<g>
					<g>
						<path style="fill:#FFFFFF;" d="M895.948,1204.788c-1.012-16.27,4.716-33.899,14.726-46.688
							c4.515-5.768,10.711-11.519,18.165-12.879c3.63-0.662,7.359-0.14,10.741,1.316c4.445,1.915,7.673,6.057,12.531,6.839
							c1.209,0.195,2.031-0.657,1.854-1.854c-1.352-9.129-15.43-13.747-23.433-13.165c-9.194,0.668-16.957,6.456-22.604,13.395
							c-6.359,7.813-10.829,17.178-13.547,26.852c-2.4,8.543-3.927,18.021-0.451,26.456
							C894.331,1206.035,896.026,1206.054,895.948,1204.788L895.948,1204.788z"/>
					</g>
				</g>
				<g>
					<g>
						<path style="fill:#FFFFFF;" d="M939.163,1167.566c4.763-6.406,9.69-12.086,17.759-14.152c3.728-0.954,7.695-1.1,11.494-0.472
							c3.111,0.514,6.181,2.348,9.119,0.405c0.6-0.397,0.787-0.979,0.677-1.663c-1.376-8.573-19.365-5.854-24.785-3.903
							c-8.247,2.969-16.353,9.787-16.433,19.197C936.983,1168.229,938.517,1168.436,939.163,1167.566L939.163,1167.566z"/>
					</g>
				</g>
				<g>
					<g>
						<path style="fill:#FFFFFF;" d="M962.231,1149.525c0.246-4.565-0.15-8.854,1.435-13.262c1.696-4.717,4.89-8.824,8.646-12.091
							c4.054-3.526,8.952-6.131,14.143-7.513c4.846-1.29,10.099-0.547,14.829-1.956c1.336-0.398,1.372-2.004,0.36-2.754
							c-4.88-3.615-12.68-2.243-18.075-0.579c-5.885,1.815-11.335,4.967-15.886,9.109c-7.203,6.557-15.549,20.472-8.579,29.894
							C960.079,1151.691,962.136,1151.279,962.231,1149.525L962.231,1149.525z"/>
					</g>
				</g>
				<g>
					<g>
						<path style="fill:#FFFFFF;" d="M835.051,1234.115c-8.957-5.905-23.169-3.969-32.421,0.15
							c-9.968,4.437-17.684,12.853-22.979,22.241c-11.195,19.851-13.581,46.082-4.351,67.127
							c5.064,11.547,14.514,21.322,27.041,24.28c1.311,0.31,2.108-1.474,0.924-2.191c-18.671-11.292-28.188-29.964-27.962-51.681
							c0.208-19.903,8.105-42.102,25.489-53.283c4.57-2.939,9.694-4.928,15.086-5.684c6.394-0.896,12.382,0.8,18.706,0.764
							C835.534,1235.832,835.8,1234.608,835.051,1234.115L835.051,1234.115z"/>
					</g>
				</g>
				<g>
					<g>
						<path style="fill:#FFFFFF;" d="M1221.21,1032.737c5.624-7.92,11.408-16.106,21.506-18.209
							c8.447-1.759,17.039,1.054,24.205,5.487c8.349,5.165,14.95,12.683,19.821,21.146c5.389,9.363,6.495,18.981,8.197,29.396
							c0.246,1.504,2.37,1.223,2.774,0c3.595-10.867-0.747-23.986-6.051-33.57c-5.406-9.769-13.969-18.33-23.783-23.663
							c-8.499-4.619-19.025-7.244-28.504-4.194c-4.636,1.492-8.842,4.23-12.205,7.737c-4.294,4.479-6.602,9.16-7.714,15.13
							C1219.255,1033.081,1220.571,1033.636,1221.21,1032.737L1221.21,1032.737z"/>
					</g>
				</g>
			</g>
			<g>
				<g>
					
						<path style="fill:#222323;stroke:#FFFFFF;stroke-width:4.8711;stroke-linecap:round;stroke-linejoin:round;stroke-miterlimit:10;" d="
						M865.807,385.152l-78.263,56.115c-23.599,16.806-19.614,39.383,10.033,48.588l32.941,10.221L865.807,385.152z"/>
					
						<path style="fill:#222323;stroke:#FFFFFF;stroke-width:4.8711;stroke-linecap:round;stroke-linejoin:round;stroke-miterlimit:10;" d="
						M955.124,412.583l33.286,90.369c10.104,27.157-5.876,43.604-35.578,34.582l-32.997-10.033L955.124,412.583z"/>
					
						<path style="fill:#222323;stroke:#FFFFFF;stroke-width:4.8711;stroke-linecap:round;stroke-linejoin:round;stroke-miterlimit:10;" d="
						M874.274,343.095c-10.877,18.206-11.736,25.401-11.736,25.401l-42.994,139.981l104.443,32.071l42.989-139.976
						c0,0,4.533-9.715,4.935-27.494L874.274,343.095z"/>
					
						<path style="fill:#222323;stroke:#FFFFFF;stroke-width:4.8711;stroke-linecap:round;stroke-linejoin:round;stroke-miterlimit:10;" d="
						M874.274,343.095l97.638,29.983c-0.01,0.531,0.066-4.297-0.077-7.55c-1.052-24.463-20.279-73.19-28.03-75.571
						c-7.746-2.379-51.03,23.911-65.622,46.806C875.159,341.517,872.953,345.304,874.274,343.095z"/>
					<g>
						
							<path style="fill:#222323;stroke:#FFFFFF;stroke-width:4.8711;stroke-linecap:round;stroke-linejoin:round;stroke-miterlimit:10;" d="
							M917.797,374.758c-24.041-7.382-49.515,6.12-56.9,30.161c-7.38,24.041,6.12,49.51,30.16,56.89
							c24.051,7.383,49.515-6.114,56.901-30.152C955.343,407.612,941.838,382.138,917.797,374.758z M894.112,451.877
							c-18.557-5.692-28.976-25.358-23.279-43.906c5.698-18.552,25.357-28.984,43.914-23.279
							c18.557,5.695,28.971,25.357,23.273,43.914C932.328,447.158,912.669,457.577,894.112,451.877z"/>
						
							<path style="fill:#222323;stroke:#FFFFFF;stroke-width:4.8711;stroke-linecap:round;stroke-linejoin:round;stroke-miterlimit:10;" d="
							M938.021,428.606c-5.693,18.552-25.352,28.971-43.909,23.271c-18.557-5.692-28.976-25.358-23.279-43.906
							c5.698-18.552,25.357-28.984,43.914-23.279C933.304,390.387,943.719,410.049,938.021,428.606z"/>
					</g>
					<g>
						<g>
							<g>
								
									<path style="fill:#222323;stroke:#FFFFFF;stroke-width:4.8711;stroke-linecap:round;stroke-linejoin:round;stroke-miterlimit:10;" d="
									M829.502,534.729l27.655,8.495c2.343,44.506-31.97,60.625-31.97,60.625C801.293,567.194,829.502,534.729,829.502,534.729z"
									/>
								
									<path style="fill:#222323;stroke:#FFFFFF;stroke-width:4.8711;stroke-linecap:round;stroke-linejoin:round;stroke-miterlimit:10;" d="
									M852.801,541.885l-18.969-5.828c-4.905,11.098-10.846,30.531-3.807,49.503C830.025,585.56,847.494,572.005,852.801,541.885z
									"/>
							</g>
							
								<polygon style="fill:#222323;stroke:#FFFFFF;stroke-width:4.8711;stroke-linecap:round;stroke-linejoin:round;stroke-miterlimit:10;" points="
								860.084,544.119 825.751,533.578 828.886,526.541 861.441,536.538 							"/>
							
								<path style="fill:#222323;stroke:#FFFFFF;stroke-width:4.8711;stroke-linecap:round;stroke-linejoin:round;stroke-miterlimit:10;" d="
								M863.326,537.123l3.411-11.085c0.473-1.55-0.391-3.194-1.947-3.669l-30.73-9.433c-1.55-0.478-3.187,0.396-3.67,1.947
								l-3.395,11.08L863.326,537.123z"/>
						</g>
						<g>
							<g>
								
									<path style="fill:#222323;stroke:#FFFFFF;stroke-width:4.8711;stroke-linecap:round;stroke-linejoin:round;stroke-miterlimit:10;" d="
									M873.817,548.34l27.649,8.49c2.354,44.511-31.969,60.629-31.969,60.629C845.613,580.803,873.817,548.34,873.817,548.34z"/>
								
									<path style="fill:#222323;stroke:#FFFFFF;stroke-width:4.8711;stroke-linecap:round;stroke-linejoin:round;stroke-miterlimit:10;" d="
									M897.121,555.497l-18.974-5.827c-4.905,11.098-10.846,30.531-3.807,49.502C874.34,599.172,891.81,585.614,897.121,555.497z"
									/>
							</g>
							
								<polygon style="fill:#222323;stroke:#FFFFFF;stroke-width:4.8711;stroke-linecap:round;stroke-linejoin:round;stroke-miterlimit:10;" points="
								904.399,557.733 870.066,547.189 873.202,540.154 905.757,550.15 							"/>
							
								<path style="fill:#222323;stroke:#FFFFFF;stroke-width:4.8711;stroke-linecap:round;stroke-linejoin:round;stroke-miterlimit:10;" d="
								M907.647,550.732l3.405-11.083c0.473-1.55-0.391-3.192-1.947-3.672l-30.724-9.436c-1.545-0.478-3.192,0.397-3.67,1.949
								l-3.405,11.08L907.647,550.732z"/>
						</g>
					</g>
				</g>
				<g>
					<g>
						<g>
							<path style="fill:#FFFFFF;" d="M940.724,298.142c-0.066,5.41,1.87,11.17,3.324,16.349c1.566,5.579,3.406,11.066,5.181,16.579
								c1.778,5.52,3.438,11.071,5.025,16.648c1.172,4.119,1.485,10.291,5.425,12.701c0.715,0.437,1.513,0.099,1.968-0.516
								c2.759-3.725,0.223-9.934-0.846-13.99c-1.477-5.605-3.432-11.092-5.348-16.559c-1.92-5.477-3.893-10.933-5.866-16.39
								c-1.856-5.133-3.197-10.848-5.735-15.669C943.055,295.784,940.744,296.534,940.724,298.142L940.724,298.142z"/>
						</g>
					</g>
					<g>
						<g>
							<path style="fill:#FFFFFF;" d="M918.03,364.817c3.736,4.536,10.282,6.028,15.699,7.578
								c5.307,1.519,10.691,2.926,15.949,4.606c6.741,2.153,12.058,6.147,10.871,13.896c-1.081,7.053-2.991,14.192-4.566,21.155
								c-3.44,15.21-8.164,30.06-13.393,44.741c-2.616,7.345-5.352,14.647-8.119,21.937c-1.328,3.5-2.667,6.99-3.886,10.53
								c-0.605,1.759-1.29,3.515-1.815,5.3c-0.582,1.977-0.608,4.285-1.397,6.173c-0.526,1.257,1.238,1.89,2.061,1.2
								c5.402-4.534,7.537-13.479,10.012-19.898c3.143-8.151,6.257-16.315,9.215-24.535c6.008-16.696,11.457-33.68,15.234-51.033
								c2.639-12.124,7.485-25.846-6.106-33.145c-5.245-2.817-11.508-4.104-17.247-5.522c-7.078-1.749-13.983-3.599-20.979-5.616
								C917.938,361.716,917.087,363.673,918.03,364.817L918.03,364.817z"/>
						</g>
					</g>
					<g>
						<g>
							<path style="fill:#FFFFFF;" d="M841.226,411.295c-5.083,4.497-11.698,7.96-17.449,11.537
								c-7.531,4.684-15.156,9.263-22.182,14.695c-5.774,4.465-11.78,9.715-14.917,16.459c-2.481,5.332-3.787,14.248,1.576,18.295
								c1.587,1.197,3.818-0.437,3.814-2.189c-0.008-3.098-1.883-5.785-1.795-8.979c0.086-3.159,1.39-6.048,3.066-8.674
								c4.149-6.501,10.699-11.392,16.912-15.773c6.488-4.576,13.305-8.646,19.903-13.055c4.789-3.2,9.261-6.394,12.364-11.321
								C843.034,411.47,841.9,410.698,841.226,411.295L841.226,411.295z"/>
						</g>
					</g>
					<g>
						<g>
							<path style="fill:#FFFFFF;" d="M952.263,465.846c-2.719,3.955-3.287,9.809-4.857,14.349c-1.764,5.1-3.664,10.152-5.56,15.204
								c-1.908,5.082-3.795,10.185-5.254,15.418c-0.966,3.467-3.834,10.693-2.034,14.13c1.504,2.872,6.338,5.391,9.121,6.735
								c3.858,1.864,8.083,2.93,12.299,3.602c7.494,1.196,17.889,2.655,24.206-2.474c1.328-1.078,0.431-3.09-0.937-3.549
								c-6.628-2.227-14.354-0.209-21.279-1.193c-3.712-0.527-7.345-1.489-10.841-2.836c-1.564-0.602-3.871-1.25-5.106-2.449
								c-1.766-1.714-0.848-3.645-0.309-6.146c1.927-8.938,5.323-17.46,8.362-26.056c2.338-6.612,7.027-17.468,4.319-24.457
								C954.023,465.172,952.857,464.982,952.263,465.846L952.263,465.846z"/>
						</g>
					</g>
					<g>
						<g>
							<path style="fill:#FFFFFF;" d="M878.346,407.098c5.852,0.675,11.985-3.698,16.809-6.473
								c5.784-3.327,12.508-6.292,17.389-10.892c0.764-0.72-0.063-1.737-0.933-1.603c-6.464,0.994-12.159,5.421-17.666,8.694
								c-5.053,3.002-11.819,5.385-15.793,9.806C877.982,406.82,878.112,407.071,878.346,407.098L878.346,407.098z"/>
						</g>
					</g>
					<g>
						<g>
							<path style="fill:#FFFFFF;" d="M875.927,415.584c8.686-2.035,16.287-8.462,23.751-13.05c4.142-2.546,8.396-4.92,12.908-6.749
								c2.881-1.168,7.652-1.369,9.295-4.272c0.184-0.326,0.142-0.773-0.134-1.038c-2.583-2.482-6.781-0.522-9.687,0.553
								c-4.398,1.626-8.539,3.924-12.528,6.366c-8.242,5.045-17.084,10.663-24.071,17.388
								C875.103,415.126,875.475,415.69,875.927,415.584L875.927,415.584z"/>
						</g>
					</g>
					<g>
						<g>
							<path style="fill:#FFFFFF;" d="M875.146,423.683c9.58-1.652,17.648-6.452,25.931-11.346c4.286-2.533,8.525-5.144,12.785-7.72
								c3.427-2.072,7.737-3.982,9.798-7.561c0.389-0.676-0.105-1.544-0.887-1.546c-3.915-0.008-7.348,2.572-10.56,4.577
								c-4.219,2.633-8.412,5.307-12.65,7.908c-8.207,5.038-16.708,9.518-24.866,14.624
								C874.114,422.984,874.51,423.793,875.146,423.683L875.146,423.683z"/>
						</g>
					</g>
					<g>
						<g>
							<path style="fill:#FFFFFF;" d="M874.935,432.251c9.838-0.063,19.755-7.666,27.712-12.704
								c4.683-2.965,9.303-6.038,14.068-8.871c3.66-2.176,10.07-3.91,11.99-7.895c0.35-0.727,0.069-1.563-0.737-1.811
								c-3.989-1.229-8.365,2.186-11.686,4.084c-4.803,2.746-9.445,5.767-14.048,8.832c-4.369,2.909-8.738,5.824-13.269,8.477
								c-4.752,2.782-10.072,4.919-14.481,8.228C873.824,431.088,873.975,432.257,874.935,432.251L874.935,432.251z"/>
						</g>
					</g>
				</g>
			</g>
		</g>
	</g>
</g>
</svg>
