<svg xmlns="http://www.w3.org/2000/svg" width="16" height="16" viewBox="0 0 16 16" fill="none">
<circle cx="8" cy="8" r="8" fill="#F7931A"/>
<path d="M11.1411 5.90878C11.0194 4.83934 10.0884 4.49636 8.91909 4.41445L8.89312 2.92854L7.98866 2.94442L8.01397 4.39117C7.7762 4.39535 7.53324 4.40429 7.29185 4.41332L7.26656 2.95699L6.36259 2.97275L6.38818 4.45824C6.19243 4.46566 6.00019 4.47265 5.81268 4.47605L5.81248 4.47144L4.565 4.49279L4.5821 5.45878C4.5821 5.45878 5.24979 5.43439 5.2389 5.44688C5.60526 5.4406 5.72821 5.6512 5.76609 5.83413L5.79572 7.52689C5.821 7.52659 5.854 7.52706 5.89143 7.53153C5.8613 7.53209 5.82905 7.53246 5.79589 7.53332L5.83706 9.90472C5.82299 10.0203 5.75843 10.2053 5.50248 10.2102C5.51423 10.2203 4.845 10.2215 4.845 10.2215L4.68415 11.3048L5.86117 11.2842C6.08021 11.2807 6.2958 11.2806 6.5074 11.2783L6.53402 12.7811L7.43751 12.7655L7.41152 11.2785C7.65969 11.2793 7.89979 11.2771 8.13416 11.2728L8.15961 12.7529L9.06407 12.737L9.03816 11.2368C10.5572 11.1231 11.6148 10.7214 11.722 9.29116C11.8087 8.1395 11.2588 7.6359 10.3921 7.44369C10.9118 7.16751 11.2314 6.69131 11.1411 5.90878ZM9.93176 9.14427C9.95187 10.2673 8.02664 10.1732 7.41368 10.1844L7.37915 8.19328C7.99231 8.18272 9.91139 7.97287 9.93176 9.14427ZM9.46207 6.34236C9.47962 7.36413 7.87379 7.27289 7.36321 7.28185L7.33174 5.47596C7.84232 5.467 9.44335 5.27664 9.46207 6.34236Z" fill="white"/>
<g clip-path="url(#clip0_31892_45119)">
<mask id="mask0_31892_45119" style="mask-type:luminance" maskUnits="userSpaceOnUse" x="0" y="0" width="16" height="16">
<path d="M16 0H0V16H16V0Z" fill="white"/>
</mask>
<g mask="url(#mask0_31892_45119)">
<path d="M13.5 5C14.8807 5 16 3.88071 16 2.5C16 1.11929 14.8807 0 13.5 0C12.1193 0 11 1.11929 11 2.5C11 3.88071 12.1193 5 13.5 5Z" fill="url(#paint0_radial_31892_45119)"/>
<path d="M13.5 4.375C14.5355 4.375 15.375 3.53553 15.375 2.5C15.375 1.46447 14.5355 0.625 13.5 0.625C12.4645 0.625 11.625 1.46447 11.625 2.5C11.625 3.53553 12.4645 4.375 13.5 4.375Z" fill="url(#paint1_radial_31892_45119)"/>
<path d="M13.5 3.75C14.1904 3.75 14.75 3.19036 14.75 2.5C14.75 1.80964 14.1904 1.25 13.5 1.25C12.8096 1.25 12.25 1.80964 12.25 2.5C12.25 3.19036 12.8096 3.75 13.5 3.75Z" fill="url(#paint2_radial_31892_45119)"/>
</g>
</g>
<defs>
<radialGradient id="paint0_radial_31892_45119" cx="0" cy="0" r="1" gradientUnits="userSpaceOnUse" gradientTransform="translate(13.5 2.5) rotate(90) scale(2.5)">
<stop offset="0.739583" stop-color="#49266B"/>
<stop offset="1" stop-color="#976EC0"/>
</radialGradient>
<radialGradient id="paint1_radial_31892_45119" cx="0" cy="0" r="1" gradientUnits="userSpaceOnUse" gradientTransform="translate(13.5 2.5) rotate(90) scale(1.875)">
<stop offset="0.713542" stop-color="#3E2755"/>
<stop offset="1" stop-color="#845EAA"/>
</radialGradient>
<radialGradient id="paint2_radial_31892_45119" cx="0" cy="0" r="1" gradientUnits="userSpaceOnUse" gradientTransform="translate(13.5 2.5) rotate(90) scale(1.25)">
<stop offset="0.494792"/>
<stop offset="1" stop-color="#845EAA"/>
</radialGradient>
<clipPath id="clip0_31892_45119">
<rect width="16" height="16" fill="white"/>
</clipPath>
</defs>
</svg>