<svg xmlns="http://www.w3.org/2000/svg" width="16" height="16" viewBox="0 0 16 16" fill="none">
<g clip-path="url(#clip0_33727_22379)">
<path d="M8 16C12.4183 16 16 12.4183 16 8C16 3.58172 12.4183 0 8 0C3.58172 0 0 3.58172 0 8C0 12.4183 3.58172 16 8 16Z" fill="#111727"/>
<path d="M2.00154 8.7044C1.98724 8.44516 1.96042 8.21454 1.96579 7.98927C1.96579 7.92491 2.04981 7.84267 2.11417 7.79977C2.56559 7.52564 3.08247 7.37805 3.61057 7.37248C5.2196 7.30812 6.66772 7.82658 8.01215 8.66149C9.09109 9.2983 9.99289 10.1958 10.6349 11.2717C10.9619 11.8023 11.1398 12.4113 11.1498 13.0345C11.1581 13.0918 11.1467 13.1503 11.1175 13.2003C11.0883 13.2503 11.0429 13.2889 10.9888 13.3098C10.7976 13.392 10.6098 13.4886 10.406 13.5815C9.88577 11.7544 8.71476 10.4833 7.13255 9.56433C5.55034 8.6454 3.8698 8.25208 2.00154 8.7044ZM2.68806 6.3427C3.59044 6.14618 4.52561 6.15658 5.42341 6.3731C7.24567 6.76708 8.92104 7.66391 10.2594 8.96184C11.0973 9.72252 11.7284 10.6834 12.0937 11.7544C12.1616 11.9636 12.2081 12.1817 12.2725 12.3962L12.3369 12.4212C12.4559 12.2729 12.5501 12.1063 12.6158 11.9278C12.6771 11.6199 12.688 11.3041 12.6479 10.9928C12.5228 10.1829 12.0901 9.51248 11.5752 8.89212C10.5453 7.66472 9.24323 6.69446 7.77258 6.05844C6.69662 5.54154 5.51936 5.26981 4.32569 5.26287C3.79054 5.24933 3.26077 5.37239 2.78639 5.62043C2.45028 5.79921 2.15708 6.04235 2.11417 6.50003C2.32514 6.44103 2.5057 6.39097 2.68806 6.3427ZM2.57007 10.5423C2.59086 10.607 2.63379 10.6624 2.69132 10.6987C2.74885 10.735 2.81732 10.7498 2.88472 10.7407C3.57186 10.7545 4.25131 10.8882 4.89243 11.1358C6.29113 11.6427 7.47327 12.6147 8.24099 13.889C8.26477 13.9217 8.29559 13.9487 8.33118 13.9678C8.36676 13.987 8.4062 13.998 8.44659 13.9999C8.73621 13.9766 9.02405 13.9302 9.31367 13.8944C9.44061 13.8783 9.46742 13.8032 9.43703 13.6924C9.41915 13.6298 9.40306 13.5672 9.38161 13.5136C9.01153 12.4052 8.29105 11.5613 7.37212 10.8748C6.19037 9.9934 4.86919 9.45885 3.37994 9.4803C2.97913 9.5062 2.57992 9.55275 2.1839 9.61975C2.33586 9.9791 2.45743 10.258 2.57007 10.5423ZM9.51391 5.45595C11.3553 6.52863 12.8821 7.91061 13.8046 9.90223C13.8422 9.60503 13.8368 9.30398 13.7886 9.00832C13.6098 8.1466 13.1306 7.43863 12.5568 6.79859C11.1714 5.2569 9.37151 4.14657 7.37212 3.60021C6.47719 3.317 5.52693 3.25504 4.6028 3.41964C4.18136 3.48865 3.79096 3.68448 3.48363 3.98101C5.72018 3.74144 7.67604 4.38684 9.51391 5.45595ZM6.53185 2.2379C9.47797 2.74739 12.1429 4.29874 14.0406 6.60909C13.0591 2.94766 9.2797 1.36724 6.53185 2.23075V2.2379ZM3.18865 11.5023C3.65348 12.5607 6.17607 14.0338 7.39357 13.948C6.53363 12.5678 4.6028 11.5345 3.18865 11.5023Z" fill="url(#paint0_linear_33727_22379)"/>
</g>
<defs>
<linearGradient id="paint0_linear_33727_22379" x1="3.8108" y1="12.2943" x2="12.3637" y2="3.74144" gradientUnits="userSpaceOnUse">
<stop stop-color="#26B9DA"/>
<stop offset="1" stop-color="#C5F484"/>
</linearGradient>
<clipPath id="clip0_33727_22379">
<rect width="16" height="16" fill="white"/>
</clipPath>
</defs>
</svg>