<svg xmlns="http://www.w3.org/2000/svg" width="20" height="20" viewBox="0 0 20 20" fill="none">
<circle cx="10" cy="10" r="10" fill="black"/>
<path fill-rule="evenodd" clip-rule="evenodd" d="M6.17107 12.7565C6.20872 12.7151 6.25457 12.682 6.30572 12.6594C6.35682 12.6367 6.41217 12.625 6.46807 12.625L15.6321 12.6325C15.6711 12.6326 15.7093 12.644 15.7419 12.6653C15.7746 12.6867 15.8004 12.7171 15.8161 12.7528C15.8318 12.7885 15.8368 12.828 15.8305 12.8665C15.8242 12.905 15.8069 12.9409 15.7806 12.9697L13.8291 15.1185C13.7914 15.1599 13.7455 15.193 13.6944 15.2156C13.6432 15.2383 13.5878 15.25 13.5318 15.25L4.36808 15.2425C4.32906 15.2424 4.29089 15.231 4.25823 15.2096C4.22556 15.1883 4.1998 15.1579 4.18408 15.1222C4.16835 15.0865 4.16333 15.0469 4.16964 15.0084C4.17594 14.9699 4.19329 14.9341 4.21958 14.9052L6.17107 12.7565ZM15.7806 10.9677C15.8069 10.9966 15.8242 11.0324 15.8305 11.0709C15.8368 11.1094 15.8318 11.149 15.8161 11.1847C15.8004 11.2204 15.7746 11.2508 15.7419 11.2721C15.7093 11.2935 15.6711 11.3049 15.6321 11.305L6.46832 11.3125C6.41237 11.3125 6.35702 11.3008 6.30582 11.2781C6.25462 11.2555 6.20872 11.2224 6.17107 11.181L4.21958 9.031C4.19329 9.00215 4.17594 8.9663 4.16964 8.9278C4.16333 8.8893 4.16835 8.84975 4.18408 8.81405C4.1998 8.77835 4.22556 8.74795 4.25823 8.7266C4.29089 8.70525 4.32906 8.69385 4.36808 8.69375L13.5321 8.68625C13.588 8.6863 13.6433 8.698 13.6945 8.72065C13.7456 8.7433 13.7915 8.77635 13.8291 8.81775L15.7806 10.9677ZM6.17107 4.8815C6.20872 4.84011 6.25457 4.80704 6.30572 4.78439C6.35682 4.76175 6.41217 4.75003 6.46807 4.75L15.6321 4.7575C15.6711 4.75758 15.7093 4.76899 15.7419 4.79034C15.7746 4.8117 15.8004 4.84208 15.8161 4.8778C15.8318 4.91352 15.8368 4.95303 15.8305 4.99154C15.8242 5.03005 15.8069 5.0659 15.7806 5.09475L13.8291 7.2435C13.7914 7.2849 13.7455 7.318 13.6944 7.34065C13.6432 7.3633 13.5878 7.375 13.5318 7.375L4.36808 7.3675C4.32906 7.3674 4.29089 7.356 4.25823 7.33465C4.22556 7.3133 4.1998 7.2829 4.18408 7.2472C4.16835 7.2115 4.16333 7.17195 4.16964 7.13345C4.17594 7.09495 4.19329 7.0591 4.21958 7.03025L6.17107 4.8815Z" fill="url(#paint0_linear_5664_28599)"/>
<defs>
<linearGradient id="paint0_linear_5664_28599" x1="4.52108" y1="15.479" x2="15.4791" y2="4.521" gradientUnits="userSpaceOnUse">
<stop stop-color="#9945FF"/>
<stop offset="0.2" stop-color="#7962E7"/>
<stop offset="1" stop-color="#00D18C"/>
</linearGradient>
</defs>
</svg>