<svg xmlns="http://www.w3.org/2000/svg" width="18" height="18" viewBox="0 0 18 18" fill="none">
<path d="M9 18C13.9875 18 18 13.9875 18 9C18 4.01247 13.9875 0 9 0C4.01247 0 0 4.01247 0 9C0 13.9875 4.01247 18 9 18Z" fill="#2775CA"/>
<path d="M11.4751 10.4249C11.4751 9.11243 10.6876 8.66243 9.11264 8.47496C7.98765 8.32493 7.76265 8.02496 7.76265 7.4999C7.76265 6.97484 8.13768 6.63743 8.88764 6.63743C9.56263 6.63743 9.93766 6.86243 10.1251 7.42493C10.1627 7.53743 10.2752 7.6124 10.3877 7.6124H10.9876C11.1376 7.6124 11.2501 7.4999 11.2501 7.34996V7.31243C11.1001 6.4874 10.4251 5.84992 9.56263 5.77495V4.87495C9.56263 4.72492 9.45013 4.61242 9.26267 4.57489H8.70017C8.55014 4.57489 8.43764 4.68739 8.40011 4.87495V5.73742C7.27513 5.88745 6.56269 6.63743 6.56269 7.57496C6.56269 8.81246 7.31266 9.29991 8.88764 9.48747C9.93766 9.67494 10.2752 9.89994 10.2752 10.5C10.2752 11.1 9.7501 11.5125 9.03767 11.5125C8.06262 11.5125 7.72512 11.0999 7.61262 10.5374C7.57518 10.3875 7.46268 10.3124 7.35019 10.3124H6.71263C6.56269 10.3124 6.4502 10.4249 6.4502 10.5749V10.6125C6.60013 11.5499 7.20016 12.2249 8.43764 12.4125V13.3125C8.43764 13.4624 8.55014 13.5749 8.73761 13.6124H9.3001C9.45013 13.6124 9.56263 13.4999 9.60016 13.3125V12.4125C10.7251 12.2249 11.4751 11.4374 11.4751 10.4249Z" fill="white"/>
<path d="M7.08726 14.3626C4.16225 13.3126 2.66222 10.0501 3.74978 7.16256C4.31228 5.58756 5.54978 4.38759 7.08726 3.82509C7.23728 3.75012 7.31225 3.63762 7.31225 3.45006V2.92509C7.31225 2.77506 7.23728 2.66256 7.08726 2.62512C7.04973 2.62512 6.97475 2.62512 6.93722 2.66256C3.37475 3.78756 1.42472 7.57512 2.54972 11.1376C3.22472 13.2376 4.83725 14.8501 6.93722 15.5251C7.08726 15.6001 7.23729 15.5251 7.27472 15.3751C7.31225 15.3376 7.31225 15.3001 7.31225 15.2251V14.7001C7.31225 14.5876 7.19975 14.4376 7.08726 14.3626ZM11.0623 2.66256C10.9123 2.58759 10.7622 2.66256 10.7248 2.81259C10.6873 2.85012 10.6873 2.88756 10.6873 2.96262V3.48759C10.6873 3.63762 10.7998 3.78756 10.9123 3.86262C13.8373 4.91256 15.3373 8.17506 14.2497 11.0626C13.6872 12.6376 12.4497 13.8376 10.9123 14.4001C10.7622 14.4751 10.6873 14.5876 10.6873 14.7751V15.3001C10.6873 15.4501 10.7622 15.5626 10.9123 15.6001C10.9498 15.6001 11.0248 15.6001 11.0623 15.5626C14.6248 14.4376 16.5748 10.6501 15.4498 7.08759C14.7748 4.95009 13.1247 3.33756 11.0623 2.66256Z" fill="white"/>
</svg>