<svg xmlns="http://www.w3.org/2000/svg" width="16" height="16" viewBox="0 0 16 16" fill="none">
<g clip-path="url(#clip0_31892_45118)">
<mask id="mask0_31892_45118" style="mask-type:luminance" maskUnits="userSpaceOnUse" x="0" y="0" width="16" height="16">
<path d="M16 0H0V16H16V0Z" fill="white"/>
</mask>
<g mask="url(#mask0_31892_45118)">
<mask id="mask1_31892_45118" style="mask-type:luminance" maskUnits="userSpaceOnUse" x="0" y="0" width="16" height="16">
<path d="M16 0H0V16H16V0Z" fill="white"/>
</mask>
<g mask="url(#mask1_31892_45118)">
<path d="M8 16C12.4183 16 16 12.4183 16 8C16 3.58172 12.4183 0 8 0C3.58172 0 0 3.58172 0 8C0 12.4183 3.58172 16 8 16Z" fill="#F3F3F3"/>
<path d="M7.99896 1.5V6.23065L11.9974 8.0173L7.99896 1.5Z" fill="#343434"/>
<path d="M7.9989 1.5L4 8.0173L7.9989 6.23065V1.5Z" fill="#8C8C8C"/>
<path d="M7.99896 11.083V14.2974L12 8.76196L7.99896 11.083Z" fill="#3C3C3B"/>
<path d="M7.9989 14.2974V11.0825L4 8.76196L7.9989 14.2974Z" fill="#8C8C8C"/>
<path d="M7.99896 10.339L11.9974 8.01735L7.99896 6.23175V10.339Z" fill="#141414"/>
<path d="M4 8.01735L7.9989 10.339V6.23175L4 8.01735Z" fill="#393939"/>
</g>
<path d="M13.5 5C14.8807 5 16 3.88071 16 2.5C16 1.11929 14.8807 0 13.5 0C12.1193 0 11 1.11929 11 2.5C11 3.88071 12.1193 5 13.5 5Z" fill="url(#paint0_radial_31892_45118)"/>
<path d="M13.5 4.375C14.5355 4.375 15.375 3.53553 15.375 2.5C15.375 1.46447 14.5355 0.625 13.5 0.625C12.4645 0.625 11.625 1.46447 11.625 2.5C11.625 3.53553 12.4645 4.375 13.5 4.375Z" fill="url(#paint1_radial_31892_45118)"/>
<path d="M13.5 3.75C14.1904 3.75 14.75 3.19036 14.75 2.5C14.75 1.80964 14.1904 1.25 13.5 1.25C12.8096 1.25 12.25 1.80964 12.25 2.5C12.25 3.19036 12.8096 3.75 13.5 3.75Z" fill="url(#paint2_radial_31892_45118)"/>
</g>
</g>
<defs>
<radialGradient id="paint0_radial_31892_45118" cx="0" cy="0" r="1" gradientUnits="userSpaceOnUse" gradientTransform="translate(13.5 2.5) rotate(90) scale(2.5)">
<stop offset="0.739583" stop-color="#49266B"/>
<stop offset="1" stop-color="#976EC0"/>
</radialGradient>
<radialGradient id="paint1_radial_31892_45118" cx="0" cy="0" r="1" gradientUnits="userSpaceOnUse" gradientTransform="translate(13.5 2.5) rotate(90) scale(1.875)">
<stop offset="0.713542" stop-color="#3E2755"/>
<stop offset="1" stop-color="#845EAA"/>
</radialGradient>
<radialGradient id="paint2_radial_31892_45118" cx="0" cy="0" r="1" gradientUnits="userSpaceOnUse" gradientTransform="translate(13.5 2.5) rotate(90) scale(1.25)">
<stop offset="0.494792"/>
<stop offset="1" stop-color="#845EAA"/>
</radialGradient>
<clipPath id="clip0_31892_45118">
<rect width="16" height="16" fill="white"/>
</clipPath>
</defs>
</svg>